<?xml version="1.0" encoding="UTF-8" standalone="no"?>
<!-- Generator: Adobe Illustrator 16.0.0, SVG Export Plug-In . SVG Version: 6.00 Build 0)  -->

<svg
   xmlns:dc="http://purl.org/dc/elements/1.1/"
   xmlns:cc="http://creativecommons.org/ns#"
   xmlns:rdf="http://www.w3.org/1999/02/22-rdf-syntax-ns#"
   xmlns:svg="http://www.w3.org/2000/svg"
   xmlns="http://www.w3.org/2000/svg"
   xmlns:sodipodi="http://sodipodi.sourceforge.net/DTD/sodipodi-0.dtd"
   xmlns:inkscape="http://www.inkscape.org/namespaces/inkscape"
   version="1.1"
   id="Capa_1"
   x="0px"
   y="0px"
   width="42"
   height="42"
   viewBox="0 0 4.0730156 4.0730156"
   xml:space="preserve"
   sodipodi:docname="facebook.svg"
   inkscape:version="0.92.1 unknown"><metadata
     id="metadata43"><rdf:RDF><cc:Work
         rdf:about=""><dc:format>image/svg+xml</dc:format><dc:type
           rdf:resource="http://purl.org/dc/dcmitype/StillImage" /><dc:title></dc:title></cc:Work></rdf:RDF></metadata><defs
     id="defs41" /><sodipodi:namedview
     pagecolor="#ffffff"
     bordercolor="#666666"
     borderopacity="1"
     objecttolerance="10"
     gridtolerance="10"
     guidetolerance="10"
     inkscape:pageopacity="0"
     inkscape:pageshadow="2"
     inkscape:window-width="1366"
     inkscape:window-height="709"
     id="namedview39"
     showgrid="false"
     inkscape:zoom="1.84375"
     inkscape:cx="174.55144"
     inkscape:cy="75.457568"
     inkscape:window-x="0"
     inkscape:window-y="0"
     inkscape:window-maximized="1"
     inkscape:current-layer="Capa_1" /><g
     id="g6"
     transform="matrix(0.04296875,0,0,0.04296875,0.96976561,0.96976561)"><g
       id="g4"><path
         d="M 24.826,0 C 11.137,0 0,11.137 0,24.826 0,38.514 11.137,49.652 24.826,49.652 38.514,49.652 49.652,38.514 49.652,24.826 49.652,11.137 38.516,0 24.826,0 Z M 31,25.7 h -4.039 c 0,6.453 0,14.396 0,14.396 h -5.985 c 0,0 0,-7.866 0,-14.396 h -2.845 v -5.088 h 2.845 v -3.291 c 0,-2.357 1.12,-6.04 6.04,-6.04 l 4.435,0.017 v 4.939 c 0,0 -2.695,0 -3.219,0 -0.524,0 -1.269,0.262 -1.269,1.386 v 2.99 h 4.56 z"
         id="path2"
         inkscape:connector-curvature="0"
         style="fill:#676767" /></g></g><g
     id="g8"
     transform="translate(0,-45.578984)" /><g
     id="g10"
     transform="translate(0,-45.578984)" /><g
     id="g12"
     transform="translate(0,-45.578984)" /><g
     id="g14"
     transform="translate(0,-45.578984)" /><g
     id="g16"
     transform="translate(0,-45.578984)" /><g
     id="g18"
     transform="translate(0,-45.578984)" /><g
     id="g20"
     transform="translate(0,-45.578984)" /><g
     id="g22"
     transform="translate(0,-45.578984)" /><g
     id="g24"
     transform="translate(0,-45.578984)" /><g
     id="g26"
     transform="translate(0,-45.578984)" /><g
     id="g28"
     transform="translate(0,-45.578984)" /><g
     id="g30"
     transform="translate(0,-45.578984)" /><g
     id="g32"
     transform="translate(0,-45.578984)" /><g
     id="g34"
     transform="translate(0,-45.578984)" /><g
     id="g36"
     transform="translate(0,-45.578984)" /></svg>