<?xml version="1.0" encoding="UTF-8" standalone="no"?>
<!-- Generator: Gravit.io -->

<svg
   xmlns:dc="http://purl.org/dc/elements/1.1/"
   xmlns:cc="http://creativecommons.org/ns#"
   xmlns:rdf="http://www.w3.org/1999/02/22-rdf-syntax-ns#"
   xmlns:svg="http://www.w3.org/2000/svg"
   xmlns="http://www.w3.org/2000/svg"
   xmlns:sodipodi="http://sodipodi.sourceforge.net/DTD/sodipodi-0.dtd"
   xmlns:inkscape="http://www.inkscape.org/namespaces/inkscape"
   style="isolation:isolate"
   width="595.2755905511812"
   height="841.8897637795277"
   version="1.1"
   id="svg127"
   sodipodi:docname="andar-1.svg"
   inkscape:version="0.48.2 r9819">
  <metadata
     id="metadata133">
    <rdf:RDF>
      <cc:Work
         rdf:about="">
        <dc:format>image/svg+xml</dc:format>
        <dc:type
           rdf:resource="http://purl.org/dc/dcmitype/StillImage" />
        <dc:title></dc:title>
      </cc:Work>
    </rdf:RDF>
  </metadata>
  <defs
     id="defs131" />
  <sodipodi:namedview
     pagecolor="#ffffff"
     bordercolor="#666666"
     inkscape:document-rotation="0"
     borderopacity="1"
     objecttolerance="10"
     gridtolerance="10"
     guidetolerance="10"
     inkscape:pageopacity="0"
     inkscape:pageshadow="2"
     inkscape:window-width="1366"
     inkscape:window-height="705"
     id="namedview129"
     showgrid="false"
     inkscape:zoom="1.3944592"
     inkscape:cx="404.72435"
     inkscape:cy="728.84825"
     inkscape:window-x="-8"
     inkscape:window-y="-8"
     inkscape:window-maximized="1"
     inkscape:current-layer="g105" />
  <g
     transform="translate(0,0)"
     id="g125">
    <g
       transform="translate(0,0)"
       id="g123">
      <clipPath
         id="_clipPath_5inprjrdSvzU3LTza4m0OI0QFfNMisbQ">
        <rect
           x="0"
           y="0"
           width="595.2755905511812"
           height="841.8897637795277"
           transform="matrix(1,0,0,1,0,0)"
           fill="rgb(255,255,255)"
           id="rect2" />
      </clipPath>
      <g
         clip-path="url(#_clipPath_5inprjrdSvzU3LTza4m0OI0QFfNMisbQ)"
         id="g105">
        <path
           d=" M 5.5 77 L 5.5 540 L 35 540 L 35 837 L 211 835 L 211 430 L 380 430 L 380 835 L 557 835 L 557 540 L 590 540 L 590 77 L 346 77 L 346 398 L 246 398 L 246 77 L 5.5 77 Z "
           id="path5"
           fill="rgb(240,197,113)" />
        <path
           d=" M 133 469 L 223 469 L 223 540 L 133 540 L 133 469 Z "
           id="path7"
           fill="rgb(134,204,129)" />
        <path
           d=" M 363 540 L 473 540 L 473 459 L 363 459 L 363 540 Z "
           id="path9"
           fill="rgb(134,204,129)" />
        <path
           d=" M 256 420.94488525390625 L 256 81 L 335 81 L 335 420.94488525390625 L 256 420.94488525390625 Z "
           id="path11"
           fill="rgb(134,204,129)" />
        <path
           d=" M 120 307 L 246 307 L 246 389 L 120 389 L 120 307 Z "
           id="path13"
           fill="rgb(236,240,113)" />
        <path
           d=" M 109.33332824707031 163 L 132.6666717529297 163 L 132.6666717529297 372 L 457.6666564941406 372 L 457.6666564941406 77 L 481.6666564941406 77 L 481.6666564941406 835 L 457.6666564941406 835 L 457.6666564941406 540 L 428 540 L 428 476 L 362.6666564941406 476 L 222.6666717529297 476 L 160 476 L 160 540 L 132.6666717529297 540 L 132.6666717529297 837 L 109.33332824707031 837 L 109.33332824707031 163 Z "
           id="path15"
           fill="rgb(154,241,146)" />
        <line
           x1="457.6666564941406"
           y1="77"
           x2="482"
           y2="77"
           id="line17" />
        <line
           x1="457.6666564941406"
           y1="77"
           x2="482"
           y2="77"
           id="line19" />
        <line
           x1="457.6666564941406"
           y1="77"
           x2="482"
           y2="77"
           id="line21" />
        <g
           id="g25"
           style="isolation: isolate;">
          <line
             x1="457.6666564941406"
             y1="77"
             x2="482"
             y2="77"
             vector-effect="non-scaling-stroke"
             stroke-miterlimit="3"
             id="line23"
             stroke-opacity="10000"
             stroke-linejoin="miter"
             stroke-linecap="square"
             stroke-width="2"
             stroke="rgb(255,0,0)"
             fill="none" />
        </g>
        <path
           d=" M 425 476 L 425 540 M 420 476 L 420 540 M 414 476 L 414 540 M 407 476 L 407 540 M 402 476 L 402 540 M 397 476 L 397 540"
           id="path27"
           fill-rule="evenodd"
           fill="none" />
        <path
           d=" M 425 476 L 425 540 M 420 476 L 420 540 M 414 476 L 414 540 M 407 476 L 407 540 M 402 476 L 402 540 M 397 476 L 397 540"
           id="path29"
           fill-rule="evenodd"
           fill="none" />
        <path
           d=" M 425 476 L 425 540 M 420 476 L 420 540 M 414 476 L 414 540 M 407 476 L 407 540 M 402 476 L 402 540 M 397 476 L 397 540"
           id="path31"
           fill-rule="evenodd"
           fill="none" />
        <g
           id="g35"
           style="isolation: isolate;">
          <path
             d=" M 425 476 L 425 540 M 420 476 L 420 540 M 414 476 L 414 540 M 407 476 L 407 540 M 402 476 L 402 540 M 397 476 L 397 540"
             vector-effect="non-scaling-stroke"
             stroke-miterlimit="3"
             id="path33"
             stroke-opacity="10000"
             stroke-linejoin="miter"
             stroke-linecap="square"
             stroke-width="2"
             stroke="rgb(56,138,49)"
             fill-rule="evenodd"
             fill="none" />
        </g>
        <path
           d=" M 191 476 L 191 540 M 186 476 L 186 540 M 180 476 L 180 540 M 173 476 L 173 540 M 168 476 L 168 540 M 163 476 L 163 540"
           id="path37"
           fill-rule="evenodd"
           fill="none" />
        <path
           d=" M 191 476 L 191 540 M 186 476 L 186 540 M 180 476 L 180 540 M 173 476 L 173 540 M 168 476 L 168 540 M 163 476 L 163 540"
           id="path39"
           fill-rule="evenodd"
           fill="none" />
        <path
           d=" M 191 476 L 191 540 M 186 476 L 186 540 M 180 476 L 180 540 M 173 476 L 173 540 M 168 476 L 168 540 M 163 476 L 163 540"
           id="path41"
           fill-rule="evenodd"
           fill="none" />
        <g
           id="g45"
           style="isolation: isolate;">
          <path
             d=" M 191 476 L 191 540 M 186 476 L 186 540 M 180 476 L 180 540 M 173 476 L 173 540 M 168 476 L 168 540 M 163 476 L 163 540"
             vector-effect="non-scaling-stroke"
             stroke-miterlimit="3"
             id="path43"
             stroke-opacity="10000"
             stroke-linejoin="miter"
             stroke-linecap="square"
             stroke-width="2"
             stroke="rgb(56,138,49)"
             fill-rule="evenodd"
             fill="none" />
        </g>
        <path
           d=" M 133 837 L 35 837 L 35 540 L 5.5 540 L 5.5 77 L 246 77 L 246 372 L 133 372 L 133 360 L 133 360 M 246 163 L 133 163 M 246 220 L 133 220 L 133 187 M 246 307 L 133 307 L 133 240 M 246 339 L 133 339 M 133 307 L 133 319 M 133 343 L 133 336 M 5.5 163 L 109.66666412353516 163 L 109.66666412353516 200 M 109.66666412353516 287 L 109.66666412353516 220 L 5.5 220 M 5.5 307 L 109.66666412353516 307 L 109.66666412353516 379 M 109.66666412353516 163 L 116 163 M 5.5 398 L 109.66666412353516 398 L 109.66666412353516 430 M 5.5 450 L 109.66666412353516 450 L 109.66666412353516 520 M 35 540 L 109.66666412353516 540 L 109.66666412353516 619 M 35 639 L 109.66666412353516 639 L 109.66666412353516 714 M 35 736 L 109.66666412353516 736 L 109.66666412353516 817 M 109.66666412353516 736 L 109.66666412353516 732 M 164 476 L 223 476 L 223 540 L 211 540 L 211 837 L 133 837 L 133 757 M 211 540 L 133 540 M 211 639 L 133 639 L 133 558 M 133 639 L 133 643 M 211 736 L 133 736 L 133 660 M 133 736 L 133 740 M 161 508 L 192 508 M 458 287 L 458 220 L 346 220 M 256 372 L 256 81 L 335 81 L 335 372 M 295 372 L 295 142 M 458 142 L 458 77 L 346 77 L 346 372 L 458 372 L 458 307 L 346 307 M 458 220 L 458 167 L 346 167 M 458 167 L 458 158 M 458 77 L 461 77 M 482 142.3333282470703 L 482 77 L 590 77 L 590 540 L 557 540 L 557 837 L 380 837 L 380 540 L 363 540 L 363 476 L 425 476 M 482 158 L 482 200 M 590 220 L 482 220 M 482 242 L 482 395 M 590 307 L 482 307 M 590 423 L 482 423 M 482 419 L 482 427 M 482 448 L 482 540 L 557 540 M 482 540 L 482 544 M 482 558 L 482 639 L 557 639 M 482 657 L 482 738 L 557 738 M 482 757 L 482 837 M 380 738 L 458 738 L 458 819 M 380 639 L 458 639 L 458 718 M 380 540 L 458 540 L 458 619 M 395 508 L 425 508 M 482 218 L 482 225 M 482 163 L 590 163"
           id="path47"
           fill-rule="evenodd"
           fill="none" />
        <path
           d=" M 133 837 L 35 837 L 35 540 L 5.5 540 L 5.5 77 L 246 77 L 246 372 L 133 372 L 133 360 L 133 360 M 246 163 L 133 163 M 246 220 L 133 220 L 133 187 M 246 307 L 133 307 L 133 240 M 246 339 L 133 339 M 133 307 L 133 319 M 133 343 L 133 336 M 5.5 163 L 109.66666412353516 163 L 109.66666412353516 200 M 109.66666412353516 287 L 109.66666412353516 220 L 5.5 220 M 5.5 307 L 109.66666412353516 307 L 109.66666412353516 379 M 109.66666412353516 163 L 116 163 M 5.5 398 L 109.66666412353516 398 L 109.66666412353516 430 M 5.5 450 L 109.66666412353516 450 L 109.66666412353516 520 M 35 540 L 109.66666412353516 540 L 109.66666412353516 619 M 35 639 L 109.66666412353516 639 L 109.66666412353516 714 M 35 736 L 109.66666412353516 736 L 109.66666412353516 817 M 109.66666412353516 736 L 109.66666412353516 732 M 164 476 L 223 476 L 223 540 L 211 540 L 211 837 L 133 837 L 133 757 M 211 540 L 133 540 M 211 639 L 133 639 L 133 558 M 133 639 L 133 643 M 211 736 L 133 736 L 133 660 M 133 736 L 133 740 M 161 508 L 192 508 M 458 287 L 458 220 L 346 220 M 256 372 L 256 81 L 335 81 L 335 372 M 295 372 L 295 142 M 458 142 L 458 77 L 346 77 L 346 372 L 458 372 L 458 307 L 346 307 M 458 220 L 458 167 L 346 167 M 458 167 L 458 158 M 458 77 L 461 77 M 482 142.3333282470703 L 482 106.23622047244095 L 482 77 L 590 77 L 590 540 L 557 540 L 557 837 L 380 837 L 380 540 L 363 540 L 363 476 L 425 476 M 482 158 L 482 200 M 590 220 L 482 220 M 482 242 L 482 395 M 590 307 L 482 307 M 590 423 L 482 423 M 482 419 L 482 427 M 482 448 L 482 540 L 557 540 M 482 540 L 482 544 M 482 558 L 482 639 L 557 639 M 482 657 L 482 738 L 557 738 M 482 757 L 482 837 M 380 738 L 458 738 L 458 819 M 380 639 L 458 639 L 458 718 M 380 540 L 458 540 L 458 619 M 395 508 L 425 508 M 482 218 L 482 225 M 482 163 L 590 163"
           id="path49"
           fill-rule="evenodd"
           fill="none" />
        <path
           d=" M 133 837 L 35 837 L 35 540 L 5.5 540 L 5.5 77 L 246 77 L 246 372 L 133 372 L 133 360 L 133 360 M 246 163 L 133 163 M 246 220 L 133 220 L 133 187 M 246 307 L 133 307 L 133 240 M 246 339 L 133 339 M 133 307 L 133 319 M 133 343 L 133 336 M 5.5 163 L 109.66666412353516 163 L 109.66666412353516 200 M 109.66666412353516 287 L 109.66666412353516 220 L 5.5 220 M 5.5 307 L 109.66666412353516 307 L 109.66666412353516 379 M 109.66666412353516 163 L 116 163 M 5.5 398 L 109.66666412353516 398 L 109.66666412353516 430 M 5.5 450 L 109.66666412353516 450 L 109.66666412353516 520 M 35 540 L 109.66666412353516 540 L 109.66666412353516 619 M 35 639 L 109.66666412353516 639 L 109.66666412353516 714 M 35 736 L 109.66666412353516 736 L 109.66666412353516 817 M 109.66666412353516 736 L 109.66666412353516 732 M 164 476 L 223 476 L 223 540 L 211 540 L 211 837 L 133 837 L 133 757 M 211 540 L 133 540 M 211 639 L 133 639 L 133 558 M 133 639 L 133 643 M 211 736 L 133 736 L 133 660 M 133 736 L 133 740 M 161 508 L 192 508 M 458 287 L 458 220 L 346 220 M 256 372 L 256 81 L 335 81 L 335 372 M 295 372 L 295 142 M 458 142 L 458 77 L 346 77 L 346 372 L 458 372 L 458 307 L 346 307 M 458 220 L 458 167 L 346 167 M 458 167 L 458 158 M 458 77 L 461 77 M 482 142.3333282470703 L 482 106.23622047244095 L 482 77 L 590 77 L 590 540 L 557 540 L 557 837 L 380 837 L 380 540 L 363 540 L 363 476 L 425 476 M 482 158 L 482 200 M 590 220 L 482 220 M 482 242 L 482 395 M 590 307 L 482 307 M 590 423 L 482 423 M 482 419 L 482 427 M 482 448 L 482 540 L 557 540 M 482 540 L 482 544 M 482 558 L 482 639 L 557 639 M 482 657 L 482 738 L 557 738 M 482 757 L 482 837 M 380 738 L 458 738 L 458 819 M 380 639 L 458 639 L 458 718 M 380 540 L 458 540 L 458 619 M 395 508 L 425 508 M 482 218 L 482 225 M 482 163 L 590 163"
           id="path51"
           fill-rule="evenodd"
           fill="none" />
        <g
           id="g55"
           style="isolation: isolate;">
          <path
             d=" M 133 837 L 35 837 L 35 540 L 5.5 540 L 5.5 77 L 246 77 L 246 372 L 133 372 L 133 360 L 133 360 M 246 163 L 133 163 M 246 220 L 133 220 L 133 187 M 246 307 L 133 307 L 133 240 M 246 339 L 133 339 M 133 307 L 133 319 M 133 343 L 133 336 M 5.5 163 L 109.66666412353516 163 L 109.66666412353516 200 M 109.66666412353516 287 L 109.66666412353516 220 L 5.5 220 M 5.5 307 L 109.66666412353516 307 L 109.66666412353516 379 M 109.66666412353516 163 L 116 163 M 5.5 398 L 109.66666412353516 398 L 109.66666412353516 430 M 5.5 450 L 109.66666412353516 450 L 109.66666412353516 520 M 35 540 L 109.66666412353516 540 L 109.66666412353516 619 M 35 639 L 109.66666412353516 639 L 109.66666412353516 714 M 35 736 L 109.66666412353516 736 L 109.66666412353516 817 M 109.66666412353516 736 L 109.66666412353516 732 M 164 476 L 223 476 L 223 540 L 211 540 L 211 837 L 133 837 L 133 757 M 211 540 L 133 540 M 211 639 L 133 639 L 133 558 M 133 639 L 133 643 M 211 736 L 133 736 L 133 660 M 133 736 L 133 740 M 161 508 L 192 508 M 458 287 L 458 220 L 346 220 M 256 372 L 256 81 L 335 81 L 335 372 M 295 372 L 295 142 M 458 142 L 458 77 L 346 77 L 346 372 L 458 372 L 458 307 L 346 307 M 458 220 L 458 167 L 346 167 M 458 167 L 458 158 M 458 77 L 461 77 M 482 142.3333282470703 L 482 106.23622047244095 L 482 77 L 590 77 L 590 540 L 557 540 L 557 837 L 380 837 L 380 540 L 363 540 L 363 476 L 425 476 M 482 158 L 482 200 M 590 220 L 482 220 M 482 242 L 482 395 M 590 307 L 482 307 M 590 423 L 482 423 M 482 419 L 482 427 M 482 448 L 482 540 L 557 540 M 482 540 L 482 544 M 482 558 L 482 639 L 557 639 M 482 657 L 482 738 L 557 738 M 482 757 L 482 837 M 380 738 L 458 738 L 458 819 M 380 639 L 458 639 L 458 718 M 380 540 L 458 540 L 458 619 M 395 508 L 425 508 M 482 218 L 482 225 M 482 163 L 590 163"
             vector-effect="non-scaling-stroke"
             stroke-miterlimit="3"
             id="path53"
             stroke-opacity="10000"
             stroke-linejoin="miter"
             stroke-linecap="square"
             stroke-width="2"
             stroke="rgb(0,0,0)"
             fill-rule="evenodd"
             fill="none" />
        </g>
        <path
           d=" M 367.0234375 51.09375 Q 367.0234375 53.35546875 365.3828125 54.62109375 Q 363.7421875 55.88671875 360.9296875 55.88671875 Q 357.8828125 55.88671875 356.2421875 55.1015625 L 356.2421875 53.1796875 Q 357.296875 53.625 358.5390625 53.8828125 Q 359.78125 54.140625 361 54.140625 Q 362.9921875 54.140625 364 53.384765625 Q 365.0078125 52.62890625 365.0078125 51.28125 Q 365.0078125 50.390625 364.650390625 49.822265625 Q 364.29296875 49.25390625 363.455078125 48.7734375 Q 362.6171875 48.29296875 360.90625 47.68359375 Q 358.515625 46.828125 357.490234375 45.65625 Q 356.46484375 44.484375 356.46484375 42.59765625 Q 356.46484375 40.6171875 357.953125 39.4453125 Q 359.44140625 38.2734375 361.890625 38.2734375 Q 364.4453125 38.2734375 366.58984375 39.2109375 L 365.96875 40.9453125 Q 363.84765625 40.0546875 361.84375 40.0546875 Q 360.26171875 40.0546875 359.37109375 40.734375 Q 358.48046875 41.4140625 358.48046875 42.62109375 Q 358.48046875 43.51171875 358.80859375 44.080078125 Q 359.13671875 44.6484375 359.916015625 45.123046875 Q 360.6953125 45.59765625 362.30078125 46.171875 Q 364.99609375 47.1328125 366.009765625 48.234375 Q 367.0234375 49.3359375 367.0234375 51.09375 Z  M 378.1328125 55.65234375 L 377.74609375 53.82421875 L 377.65234375 53.82421875 Q 376.69140625 55.03125 375.736328125 55.458984375 Q 374.78125 55.88671875 373.3515625 55.88671875 Q 371.44140625 55.88671875 370.357421875 54.90234375 Q 369.2734375 53.91796875 369.2734375 52.1015625 Q 369.2734375 48.2109375 375.49609375 48.0234375 L 377.67578125 47.953125 L 377.67578125 47.15625 Q 377.67578125 45.64453125 377.025390625 44.923828125 Q 376.375 44.203125 374.9453125 44.203125 Q 373.33984375 44.203125 371.3125 45.1875 L 370.71484375 43.69921875 Q 371.6640625 43.18359375 372.794921875 42.890625 Q 373.92578125 42.59765625 375.0625 42.59765625 Q 377.359375 42.59765625 378.466796875 43.6171875 Q 379.57421875 44.63671875 379.57421875 46.88671875 L 379.57421875 55.65234375 L 378.1328125 55.65234375 Z  M 373.73828125 54.28125 Q 375.5546875 54.28125 376.591796875 53.28515625 Q 377.62890625 52.2890625 377.62890625 50.49609375 L 377.62890625 49.3359375 L 375.68359375 49.41796875 Q 373.36328125 49.5 372.337890625 50.138671875 Q 371.3125 50.77734375 371.3125 52.125 Q 371.3125 53.1796875 371.951171875 53.73046875 Q 372.58984375 54.28125 373.73828125 54.28125 Z  M 385.52734375 55.65234375 L 383.58203125 55.65234375 L 383.58203125 42.80859375 L 385.52734375 42.80859375 L 385.52734375 55.65234375 Z  M 383.5 40.81640625 Q 384.0625 40.08984375 384.712890625 39.05859375 Q 385.36328125 38.02734375 385.73828125 37.265625 L 388.10546875 37.265625 L 388.10546875 37.51171875 Q 387.58984375 38.2734375 386.5703125 39.38671875 Q 385.55078125 40.5 384.80078125 41.109375 L 383.5 41.109375 L 383.5 40.81640625 Z  M 398.39453125 53.9296875 L 398.2890625 53.9296875 Q 396.94140625 55.88671875 394.2578125 55.88671875 Q 391.73828125 55.88671875 390.337890625 54.1640625 Q 388.9375 52.44140625 388.9375 49.265625 Q 388.9375 46.08984375 390.34375 44.33203125 Q 391.75 42.57421875 394.2578125 42.57421875 Q 396.87109375 42.57421875 398.265625 44.47265625 L 398.41796875 44.47265625 L 398.3359375 43.546875 L 398.2890625 42.64453125 L 398.2890625 37.41796875 L 400.234375 37.41796875 L 400.234375 55.65234375 L 398.65234375 55.65234375 L 398.39453125 53.9296875 Z  M 394.50390625 54.2578125 Q 396.49609375 54.2578125 397.392578125 53.173828125 Q 398.2890625 52.08984375 398.2890625 49.67578125 L 398.2890625 49.265625 Q 398.2890625 46.53515625 397.380859375 45.369140625 Q 396.47265625 44.203125 394.48046875 44.203125 Q 392.76953125 44.203125 391.861328125 45.533203125 Q 390.953125 46.86328125 390.953125 49.2890625 Q 390.953125 51.75 391.85546875 53.00390625 Q 392.7578125 54.2578125 394.50390625 54.2578125 Z  M 412.2578125 55.65234375 L 411.87109375 53.82421875 L 411.77734375 53.82421875 Q 410.81640625 55.03125 409.861328125 55.458984375 Q 408.90625 55.88671875 407.4765625 55.88671875 Q 405.56640625 55.88671875 404.482421875 54.90234375 Q 403.3984375 53.91796875 403.3984375 52.1015625 Q 403.3984375 48.2109375 409.62109375 48.0234375 L 411.80078125 47.953125 L 411.80078125 47.15625 Q 411.80078125 45.64453125 411.150390625 44.923828125 Q 410.5 44.203125 409.0703125 44.203125 Q 407.46484375 44.203125 405.4375 45.1875 L 404.83984375 43.69921875 Q 405.7890625 43.18359375 406.919921875 42.890625 Q 408.05078125 42.59765625 409.1875 42.59765625 Q 411.484375 42.59765625 412.591796875 43.6171875 Q 413.69921875 44.63671875 413.69921875 46.88671875 L 413.69921875 55.65234375 L 412.2578125 55.65234375 Z  M 407.86328125 54.28125 Q 409.6796875 54.28125 410.716796875 53.28515625 Q 411.75390625 52.2890625 411.75390625 50.49609375 L 411.75390625 49.3359375 L 409.80859375 49.41796875 Q 407.48828125 49.5 406.462890625 50.138671875 Q 405.4375 50.77734375 405.4375 52.125 Q 405.4375 53.1796875 406.076171875 53.73046875 Q 406.71484375 54.28125 407.86328125 54.28125 Z  M 432.68359375 53.9296875 L 432.578125 53.9296875 Q 431.23046875 55.88671875 428.546875 55.88671875 Q 426.02734375 55.88671875 424.626953125 54.1640625 Q 423.2265625 52.44140625 423.2265625 49.265625 Q 423.2265625 46.08984375 424.6328125 44.33203125 Q 426.0390625 42.57421875 428.546875 42.57421875 Q 431.16015625 42.57421875 432.5546875 44.47265625 L 432.70703125 44.47265625 L 432.625 43.546875 L 432.578125 42.64453125 L 432.578125 37.41796875 L 434.5234375 37.41796875 L 434.5234375 55.65234375 L 432.94140625 55.65234375 L 432.68359375 53.9296875 Z  M 428.79296875 54.2578125 Q 430.78515625 54.2578125 431.681640625 53.173828125 Q 432.578125 52.08984375 432.578125 49.67578125 L 432.578125 49.265625 Q 432.578125 46.53515625 431.669921875 45.369140625 Q 430.76171875 44.203125 428.76953125 44.203125 Q 427.05859375 44.203125 426.150390625 45.533203125 Q 425.2421875 46.86328125 425.2421875 49.2890625 Q 425.2421875 51.75 426.14453125 53.00390625 Q 427.046875 54.2578125 428.79296875 54.2578125 Z  M 444.07421875 55.88671875 Q 441.2265625 55.88671875 439.580078125 54.15234375 Q 437.93359375 52.41796875 437.93359375 49.3359375 Q 437.93359375 46.23046875 439.462890625 44.40234375 Q 440.9921875 42.57421875 443.5703125 42.57421875 Q 445.984375 42.57421875 447.390625 44.162109375 Q 448.796875 45.75 448.796875 48.3515625 L 448.796875 49.58203125 L 439.94921875 49.58203125 Q 440.0078125 51.84375 441.091796875 53.015625 Q 442.17578125 54.1875 444.14453125 54.1875 Q 446.21875 54.1875 448.24609375 53.3203125 L 448.24609375 55.0546875 Q 447.21484375 55.5 446.294921875 55.693359375 Q 445.375 55.88671875 444.07421875 55.88671875 Z  M 443.546875 44.203125 Q 442 44.203125 441.080078125 45.2109375 Q 440.16015625 46.21875 439.99609375 48 L 446.7109375 48 Q 446.7109375 46.16015625 445.890625 45.181640625 Q 445.0703125 44.203125 443.546875 44.203125 Z  M 468.19140625 55.65234375 L 458.640625 55.65234375 L 458.640625 38.51953125 L 468.19140625 38.51953125 L 468.19140625 40.2890625 L 460.6328125 40.2890625 L 460.6328125 45.80859375 L 467.734375 45.80859375 L 467.734375 47.56640625 L 460.6328125 47.56640625 L 460.6328125 53.87109375 L 468.19140625 53.87109375 L 468.19140625 55.65234375 Z  M 488.06640625 55.65234375 L 488.06640625 47.296875 Q 488.06640625 45.76171875 487.41015625 44.994140625 Q 486.75390625 44.2265625 485.37109375 44.2265625 Q 483.5546875 44.2265625 482.6875 45.26953125 Q 481.8203125 46.3125 481.8203125 48.48046875 L 481.8203125 55.65234375 L 479.875 55.65234375 L 479.875 47.296875 Q 479.875 45.76171875 479.21875 44.994140625 Q 478.5625 44.2265625 477.16796875 44.2265625 Q 475.33984375 44.2265625 474.490234375 45.322265625 Q 473.640625 46.41796875 473.640625 48.9140625 L 473.640625 55.65234375 L 471.6953125 55.65234375 L 471.6953125 42.80859375 L 473.27734375 42.80859375 L 473.59375 44.56640625 L 473.6875 44.56640625 Q 474.23828125 43.62890625 475.240234375 43.1015625 Q 476.2421875 42.57421875 477.484375 42.57421875 Q 480.49609375 42.57421875 481.421875 44.75390625 L 481.515625 44.75390625 Q 482.08984375 43.74609375 483.1796875 43.16015625 Q 484.26953125 42.57421875 485.6640625 42.57421875 Q 487.84375 42.57421875 488.927734375 43.693359375 Q 490.01171875 44.8125 490.01171875 47.2734375 L 490.01171875 55.65234375 L 488.06640625 55.65234375 Z  M 499.4453125 55.88671875 Q 496.59765625 55.88671875 494.951171875 54.15234375 Q 493.3046875 52.41796875 493.3046875 49.3359375 Q 493.3046875 46.23046875 494.833984375 44.40234375 Q 496.36328125 42.57421875 498.94140625 42.57421875 Q 501.35546875 42.57421875 502.76171875 44.162109375 Q 504.16796875 45.75 504.16796875 48.3515625 L 504.16796875 49.58203125 L 495.3203125 49.58203125 Q 495.37890625 51.84375 496.462890625 53.015625 Q 497.546875 54.1875 499.515625 54.1875 Q 501.58984375 54.1875 503.6171875 53.3203125 L 503.6171875 55.0546875 Q 502.5859375 55.5 501.666015625 55.693359375 Q 500.74609375 55.88671875 499.4453125 55.88671875 Z  M 498.91796875 44.203125 Q 497.37109375 44.203125 496.451171875 45.2109375 Q 495.53125 46.21875 495.3671875 48 L 502.08203125 48 Q 502.08203125 46.16015625 501.26171875 45.181640625 Q 500.44140625 44.203125 498.91796875 44.203125 Z  M 513.34375 42.57421875 Q 514.19921875 42.57421875 514.87890625 42.71484375 L 514.609375 44.51953125 Q 513.8125 44.34375 513.203125 44.34375 Q 511.64453125 44.34375 510.537109375 45.609375 Q 509.4296875 46.875 509.4296875 48.76171875 L 509.4296875 55.65234375 L 507.484375 55.65234375 L 507.484375 42.80859375 L 509.08984375 42.80859375 L 509.3125 45.1875 L 509.40625 45.1875 Q 510.12109375 43.93359375 511.12890625 43.25390625 Q 512.13671875 42.57421875 513.34375 42.57421875 Z  M 527.79296875 42.80859375 L 527.79296875 44.0390625 L 525.4140625 44.3203125 Q 525.7421875 44.73046875 526 45.392578125 Q 526.2578125 46.0546875 526.2578125 46.88671875 Q 526.2578125 48.7734375 524.96875 49.8984375 Q 523.6796875 51.0234375 521.4296875 51.0234375 Q 520.85546875 51.0234375 520.3515625 50.9296875 Q 519.109375 51.5859375 519.109375 52.58203125 Q 519.109375 53.109375 519.54296875 53.361328125 Q 519.9765625 53.61328125 521.03125 53.61328125 L 523.3046875 53.61328125 Q 525.390625 53.61328125 526.509765625 54.4921875 Q 527.62890625 55.37109375 527.62890625 57.046875 Q 527.62890625 59.1796875 525.91796875 60.298828125 Q 524.20703125 61.41796875 520.92578125 61.41796875 Q 518.40625 61.41796875 517.041015625 60.48046875 Q 515.67578125 59.54296875 515.67578125 57.83203125 Q 515.67578125 56.66015625 516.42578125 55.8046875 Q 517.17578125 54.94921875 518.53515625 54.64453125 Q 518.04296875 54.421875 517.708984375 53.953125 Q 517.375 53.484375 517.375 52.86328125 Q 517.375 52.16015625 517.75 51.6328125 Q 518.125 51.10546875 518.93359375 50.61328125 Q 517.9375 50.203125 517.310546875 49.21875 Q 516.68359375 48.234375 516.68359375 46.96875 Q 516.68359375 44.859375 517.94921875 43.716796875 Q 519.21484375 42.57421875 521.53515625 42.57421875 Q 522.54296875 42.57421875 523.3515625 42.80859375 L 527.79296875 42.80859375 Z  M 517.55078125 57.80859375 Q 517.55078125 58.8515625 518.4296875 59.390625 Q 519.30859375 59.9296875 520.94921875 59.9296875 Q 523.3984375 59.9296875 524.576171875 59.197265625 Q 525.75390625 58.46484375 525.75390625 57.2109375 Q 525.75390625 56.16796875 525.109375 55.763671875 Q 524.46484375 55.359375 522.68359375 55.359375 L 520.3515625 55.359375 Q 519.02734375 55.359375 518.2890625 55.9921875 Q 517.55078125 56.625 517.55078125 57.80859375 Z  M 518.60546875 46.921875 Q 518.60546875 48.26953125 519.3671875 48.9609375 Q 520.12890625 49.65234375 521.48828125 49.65234375 Q 524.3359375 49.65234375 524.3359375 46.88671875 Q 524.3359375 43.9921875 521.453125 43.9921875 Q 520.08203125 43.9921875 519.34375 44.73046875 Q 518.60546875 45.46875 518.60546875 46.921875 Z  M 535.85546875 55.88671875 Q 533.0078125 55.88671875 531.361328125 54.15234375 Q 529.71484375 52.41796875 529.71484375 49.3359375 Q 529.71484375 46.23046875 531.244140625 44.40234375 Q 532.7734375 42.57421875 535.3515625 42.57421875 Q 537.765625 42.57421875 539.171875 44.162109375 Q 540.578125 45.75 540.578125 48.3515625 L 540.578125 49.58203125 L 531.73046875 49.58203125 Q 531.7890625 51.84375 532.873046875 53.015625 Q 533.95703125 54.1875 535.92578125 54.1875 Q 538 54.1875 540.02734375 53.3203125 L 540.02734375 55.0546875 Q 538.99609375 55.5 538.076171875 55.693359375 Q 537.15625 55.88671875 535.85546875 55.88671875 Z  M 535.328125 44.203125 Q 533.78125 44.203125 532.861328125 45.2109375 Q 531.94140625 46.21875 531.77734375 48 L 538.4921875 48 Q 538.4921875 46.16015625 537.671875 45.181640625 Q 536.8515625 44.203125 535.328125 44.203125 Z  M 531.40234375 40.83984375 Q 532.890625 39.24609375 533.48828125 38.49609375 Q 534.0859375 37.74609375 534.35546875 37.265625 L 536.30078125 37.265625 Q 536.55859375 37.7578125 537.197265625 38.537109375 Q 537.8359375 39.31640625 539.30078125 40.83984375 L 539.30078125 41.109375 L 537.90625 41.109375 Q 536.875 40.46484375 535.31640625 38.9296875 Q 533.72265625 40.5 532.75 41.109375 L 531.40234375 41.109375 L 531.40234375 40.83984375 Z  M 552.68359375 55.65234375 L 552.68359375 47.34375 Q 552.68359375 45.7734375 551.96875 45 Q 551.25390625 44.2265625 549.73046875 44.2265625 Q 547.71484375 44.2265625 546.77734375 45.31640625 Q 545.83984375 46.40625 545.83984375 48.9140625 L 545.83984375 55.65234375 L 543.89453125 55.65234375 L 543.89453125 42.80859375 L 545.4765625 42.80859375 L 545.79296875 44.56640625 L 545.88671875 44.56640625 Q 546.484375 43.6171875 547.5625 43.095703125 Q 548.640625 42.57421875 549.96484375 42.57421875 Q 552.28515625 42.57421875 553.45703125 43.693359375 Q 554.62890625 44.8125 554.62890625 47.2734375 L 554.62890625 55.65234375 L 552.68359375 55.65234375 Z  M 563.7578125 55.88671875 Q 560.96875 55.88671875 559.439453125 54.169921875 Q 557.91015625 52.453125 557.91015625 49.3125 Q 557.91015625 46.08984375 559.462890625 44.33203125 Q 561.015625 42.57421875 563.88671875 42.57421875 Q 564.8125 42.57421875 565.73828125 42.7734375 Q 566.6640625 42.97265625 567.19140625 43.2421875 L 566.59375 44.89453125 Q 565.94921875 44.63671875 565.1875 44.466796875 Q 564.42578125 44.296875 563.83984375 44.296875 Q 559.92578125 44.296875 559.92578125 49.2890625 Q 559.92578125 51.65625 560.880859375 52.921875 Q 561.8359375 54.1875 563.7109375 54.1875 Q 565.31640625 54.1875 567.00390625 53.49609375 L 567.00390625 55.21875 Q 565.71484375 55.88671875 563.7578125 55.88671875 Z  M 571.99609375 55.65234375 L 570.05078125 55.65234375 L 570.05078125 42.80859375 L 571.99609375 42.80859375 L 571.99609375 55.65234375 Z  M 569.88671875 39.328125 Q 569.88671875 38.66015625 570.21484375 38.349609375 Q 570.54296875 38.0390625 571.03515625 38.0390625 Q 571.50390625 38.0390625 571.84375 38.35546875 Q 572.18359375 38.671875 572.18359375 39.328125 Q 572.18359375 39.984375 571.84375 40.306640625 Q 571.50390625 40.62890625 571.03515625 40.62890625 Q 570.54296875 40.62890625 570.21484375 40.306640625 Q 569.88671875 39.984375 569.88671875 39.328125 Z  M 584.01953125 55.65234375 L 583.6328125 53.82421875 L 583.5390625 53.82421875 Q 582.578125 55.03125 581.623046875 55.458984375 Q 580.66796875 55.88671875 579.23828125 55.88671875 Q 577.328125 55.88671875 576.244140625 54.90234375 Q 575.16015625 53.91796875 575.16015625 52.1015625 Q 575.16015625 48.2109375 581.3828125 48.0234375 L 583.5625 47.953125 L 583.5625 47.15625 Q 583.5625 45.64453125 582.912109375 44.923828125 Q 582.26171875 44.203125 580.83203125 44.203125 Q 579.2265625 44.203125 577.19921875 45.1875 L 576.6015625 43.69921875 Q 577.55078125 43.18359375 578.681640625 42.890625 Q 579.8125 42.59765625 580.94921875 42.59765625 Q 583.24609375 42.59765625 584.353515625 43.6171875 Q 585.4609375 44.63671875 585.4609375 46.88671875 L 585.4609375 55.65234375 L 584.01953125 55.65234375 Z  M 579.625 54.28125 Q 581.44140625 54.28125 582.478515625 53.28515625 Q 583.515625 52.2890625 583.515625 50.49609375 L 583.515625 49.3359375 L 581.5703125 49.41796875 Q 579.25 49.5 578.224609375 50.138671875 Q 577.19921875 50.77734375 577.19921875 52.125 Q 577.19921875 53.1796875 577.837890625 53.73046875 Q 578.4765625 54.28125 579.625 54.28125 Z "
           id="path61"
           fill-rule="evenodd"
           fill="rgb(255,0,0)" />
        <path
           d=" M 275.8955078125 301.20806884765625 L 281.2392578125 301.20806884765625 L 281.2392578125 302.70220947265625 L 268.3896484375 302.70220947265625 L 268.3896484375 299.17779541015625 Q 268.3896484375 296.81353759765625 269.294921875 295.68414306640625 Q 270.2001953125 294.55474853515625 272.01953125 294.55474853515625 Q 274.568359375 294.55474853515625 275.46484375 297.13873291015625 L 281.2392578125 293.64947509765625 L 281.2392578125 295.41607666015625 L 275.8955078125 298.52740478515625 L 275.8955078125 301.20806884765625 Z  M 274.6123046875 301.20806884765625 L 274.6123046875 299.16021728515625 Q 274.6123046875 297.57818603515625 273.98388671875 296.83990478515625 Q 273.35546875 296.10162353515625 272.0986328125 296.10162353515625 Q 270.82421875 296.10162353515625 270.26171875 296.85308837890625 Q 269.69921875 297.60455322265625 269.69921875 299.26568603515625 L 269.69921875 301.20806884765625 L 274.6123046875 301.20806884765625 Z  M 281.2392578125 285.87115478515625 L 279.8681640625 286.16119384765625 L 279.8681640625 286.23150634765625 Q 280.7734375 286.95220947265625 281.09423828125 287.66851806640625 Q 281.4150390625 288.38482666015625 281.4150390625 289.45709228515625 Q 281.4150390625 290.88970947265625 280.6767578125 291.70269775390625 Q 279.9384765625 292.51568603515625 278.576171875 292.51568603515625 Q 275.658203125 292.51568603515625 275.517578125 287.84869384765625 L 275.46484375 286.21392822265625 L 274.8671875 286.21392822265625 Q 273.7333984375 286.21392822265625 273.19287109375 286.70172119140625 Q 272.65234375 287.18951416015625 272.65234375 288.26177978515625 Q 272.65234375 289.46588134765625 273.390625 290.98638916015625 L 272.2744140625 291.43463134765625 Q 271.8876953125 290.72271728515625 271.66796875 289.87457275390625 Q 271.4482421875 289.02642822265625 271.4482421875 288.17388916015625 Q 271.4482421875 286.45123291015625 272.212890625 285.62066650390625 Q 272.9775390625 284.79010009765625 274.6650390625 284.79010009765625 L 281.2392578125 284.79010009765625 L 281.2392578125 285.87115478515625 Z  M 280.2109375 289.16705322265625 Q 280.2109375 287.80474853515625 279.4638671875 287.02691650390625 Q 278.716796875 286.24908447265625 277.3720703125 286.24908447265625 L 276.501953125 286.24908447265625 L 276.5634765625 287.70806884765625 Q 276.625 289.44830322265625 277.10400390625 290.21734619140625 Q 277.5830078125 290.98638916015625 278.59375 290.98638916015625 Q 279.384765625 290.98638916015625 279.7978515625 290.50738525390625 Q 280.2109375 290.02838134765625 280.2109375 289.16705322265625 Z  M 281.2392578125 269.50592041015625 L 274.97265625 269.50592041015625 Q 273.8212890625 269.50592041015625 273.24560546875 269.99810791015625 Q 272.669921875 270.49029541015625 272.669921875 271.52740478515625 Q 272.669921875 272.88970947265625 273.4521484375 273.54010009765625 Q 274.234375 274.19049072265625 275.8603515625 274.19049072265625 L 281.2392578125 274.19049072265625 L 281.2392578125 275.64947509765625 L 274.97265625 275.64947509765625 Q 273.8212890625 275.64947509765625 273.24560546875 276.14166259765625 Q 272.669921875 276.63385009765625 272.669921875 277.67974853515625 Q 272.669921875 279.05084228515625 273.49169921875 279.68804931640625 Q 274.3134765625 280.32525634765625 276.185546875 280.32525634765625 L 281.2392578125 280.32525634765625 L 281.2392578125 281.78424072265625 L 271.6064453125 281.78424072265625 L 271.6064453125 280.59771728515625 L 272.9248046875 280.36041259765625 L 272.9248046875 280.29010009765625 Q 272.2216796875 279.87701416015625 271.826171875 279.12554931640625 Q 271.4306640625 278.37408447265625 271.4306640625 277.44244384765625 Q 271.4306640625 275.18365478515625 273.0654296875 274.48931884765625 L 273.0654296875 274.41900634765625 Q 272.3095703125 273.98834228515625 271.8701171875 273.17095947265625 Q 271.4306640625 272.35357666015625 271.4306640625 271.30767822265625 Q 271.4306640625 269.67291259765625 272.27001953125 268.85992431640625 Q 273.109375 268.04693603515625 274.955078125 268.04693603515625 L 281.2392578125 268.04693603515625 L 281.2392578125 269.50592041015625 Z  M 281.4150390625 260.55865478515625 Q 281.4150390625 261.49908447265625 281.06787109375 262.27691650390625 Q 280.720703125 263.05474853515625 280 263.58209228515625 L 280 263.68756103515625 Q 280.84375 263.58209228515625 281.599609375 263.58209228515625 L 285.5634765625 263.58209228515625 L 285.5634765625 265.04107666015625 L 271.6064453125 265.04107666015625 L 271.6064453125 263.85455322265625 L 272.9248046875 263.65240478515625 L 272.9248046875 263.58209228515625 Q 272.1337890625 263.01959228515625 271.7822265625 262.27252197265625 Q 271.4306640625 261.52545166015625 271.4306640625 260.55865478515625 Q 271.4306640625 258.64263916015625 272.740234375 257.60113525390625 Q 274.0498046875 256.55963134765625 276.4140625 256.55963134765625 Q 278.787109375 256.55963134765625 280.10107421875 257.61871337890625 Q 281.4150390625 258.67779541015625 281.4150390625 260.55865478515625 Z  M 272.669921875 260.76959228515625 Q 272.669921875 262.24615478515625 273.4873046875 262.90533447265625 Q 274.3046875 263.56451416015625 276.0888671875 263.58209228515625 L 276.4140625 263.58209228515625 Q 278.4443359375 263.58209228515625 279.31884765625 262.90533447265625 Q 280.193359375 262.22857666015625 280.193359375 260.73443603515625 Q 280.193359375 259.48638916015625 279.1826171875 258.77886962890625 Q 278.171875 258.07135009765625 276.396484375 258.07135009765625 Q 274.5947265625 258.07135009765625 273.63232421875 258.77886962890625 Q 272.669921875 259.48638916015625 272.669921875 260.76959228515625 Z  M 281.2392578125 248.08697509765625 L 279.8681640625 248.37701416015625 L 279.8681640625 248.44732666015625 Q 280.7734375 249.16802978515625 281.09423828125 249.88433837890625 Q 281.4150390625 250.60064697265625 281.4150390625 251.67291259765625 Q 281.4150390625 253.10552978515625 280.6767578125 253.91851806640625 Q 279.9384765625 254.73150634765625 278.576171875 254.73150634765625 Q 275.658203125 254.73150634765625 275.517578125 250.06451416015625 L 275.46484375 248.42974853515625 L 274.8671875 248.42974853515625 Q 273.7333984375 248.42974853515625 273.19287109375 248.91754150390625 Q 272.65234375 249.40533447265625 272.65234375 250.47760009765625 Q 272.65234375 251.68170166015625 273.390625 253.20220947265625 L 272.2744140625 253.65045166015625 Q 271.8876953125 252.93853759765625 271.66796875 252.09039306640625 Q 271.4482421875 251.24224853515625 271.4482421875 250.38970947265625 Q 271.4482421875 248.66705322265625 272.212890625 247.83648681640625 Q 272.9775390625 247.00592041015625 274.6650390625 247.00592041015625 L 281.2392578125 247.00592041015625 L 281.2392578125 248.08697509765625 Z  M 280.2109375 251.38287353515625 Q 280.2109375 250.02056884765625 279.4638671875 249.24273681640625 Q 278.716796875 248.46490478515625 277.3720703125 248.46490478515625 L 276.501953125 248.46490478515625 L 276.5634765625 249.92388916015625 Q 276.625 251.66412353515625 277.10400390625 252.43316650390625 Q 277.5830078125 253.20220947265625 278.59375 253.20220947265625 Q 279.384765625 253.20220947265625 279.7978515625 252.72320556640625 Q 280.2109375 252.24420166015625 280.2109375 251.38287353515625 Z  M 279.947265625 232.76763916015625 L 279.947265625 232.84674072265625 Q 281.4150390625 233.85748291015625 281.4150390625 235.87017822265625 Q 281.4150390625 237.75982666015625 280.123046875 238.81011962890625 Q 278.8310546875 239.86041259765625 276.44921875 239.86041259765625 Q 274.0673828125 239.86041259765625 272.7490234375 238.80572509765625 Q 271.4306640625 237.75103759765625 271.4306640625 235.87017822265625 Q 271.4306640625 233.91021728515625 272.8544921875 232.86431884765625 L 272.8544921875 232.75006103515625 L 272.16015625 232.81158447265625 L 271.4833984375 232.84674072265625 L 267.5634765625 232.84674072265625 L 267.5634765625 231.38775634765625 L 281.2392578125 231.38775634765625 L 281.2392578125 232.57427978515625 L 279.947265625 232.76763916015625 Z  M 280.193359375 235.68560791015625 Q 280.193359375 234.19146728515625 279.38037109375 233.51910400390625 Q 278.5673828125 232.84674072265625 276.7568359375 232.84674072265625 L 276.44921875 232.84674072265625 Q 274.4013671875 232.84674072265625 273.52685546875 233.52789306640625 Q 272.65234375 234.20904541015625 272.65234375 235.70318603515625 Q 272.65234375 236.98638916015625 273.64990234375 237.66754150390625 Q 274.6474609375 238.34869384765625 276.466796875 238.34869384765625 Q 278.3125 238.34869384765625 279.2529296875 237.67193603515625 Q 280.193359375 236.99517822265625 280.193359375 235.68560791015625 Z  M 281.4150390625 224.22467041015625 Q 281.4150390625 226.36041259765625 280.1142578125 227.59527587890625 Q 278.8134765625 228.83013916015625 276.501953125 228.83013916015625 Q 274.1728515625 228.83013916015625 272.8017578125 227.68316650390625 Q 271.4306640625 226.53619384765625 271.4306640625 224.60260009765625 Q 271.4306640625 222.79205322265625 272.62158203125 221.73736572265625 Q 273.8125 220.68267822265625 275.763671875 220.68267822265625 L 276.6865234375 220.68267822265625 L 276.6865234375 227.31842041015625 Q 278.3828125 227.27447509765625 279.26171875 226.46148681640625 Q 280.140625 225.64849853515625 280.140625 224.17193603515625 Q 280.140625 222.61627197265625 279.490234375 221.09576416015625 L 280.791015625 221.09576416015625 Q 281.125 221.86920166015625 281.27001953125 222.55914306640625 Q 281.4150390625 223.24908447265625 281.4150390625 224.22467041015625 Z  M 272.65234375 224.62017822265625 Q 272.65234375 225.78033447265625 273.408203125 226.47027587890625 Q 274.1640625 227.16021728515625 275.5 227.28326416015625 L 275.5 222.24713134765625 Q 274.1201171875 222.24713134765625 273.38623046875 222.86236572265625 Q 272.65234375 223.47760009765625 272.65234375 224.62017822265625 Z  M 281.2392578125 205.22271728515625 L 277.15234375 206.82232666015625 L 277.15234375 211.97271728515625 L 281.2392578125 213.55474853515625 L 281.2392578125 215.06646728515625 L 268.3369140625 209.98638916015625 L 268.3369140625 208.72955322265625 L 281.2392578125 203.67584228515625 L 281.2392578125 205.22271728515625 Z  M 275.8076171875 207.28814697265625 L 271.826171875 208.78228759765625 Q 271.0703125 209.07232666015625 269.9716796875 209.37994384765625 Q 270.8154296875 209.57330322265625 271.826171875 209.93365478515625 L 275.8076171875 211.44537353515625 L 275.8076171875 207.28814697265625 Z  M 281.4150390625 198.27935791015625 Q 281.4150390625 200.37115478515625 280.12744140625 201.51812744140625 Q 278.83984375 202.66510009765625 276.484375 202.66510009765625 Q 274.0673828125 202.66510009765625 272.7490234375 201.50054931640625 Q 271.4306640625 200.33599853515625 271.4306640625 198.18267822265625 Q 271.4306640625 197.48834228515625 271.580078125 196.79400634765625 Q 271.7294921875 196.09967041015625 271.931640625 195.70416259765625 L 273.1708984375 196.15240478515625 Q 272.9775390625 196.63580322265625 272.85009765625 197.20709228515625 Q 272.72265625 197.77838134765625 272.72265625 198.21783447265625 Q 272.72265625 201.15338134765625 276.466796875 201.15338134765625 Q 278.2421875 201.15338134765625 279.19140625 200.43707275390625 Q 280.140625 199.72076416015625 280.140625 198.31451416015625 Q 280.140625 197.11041259765625 279.6220703125 195.84478759765625 L 280.9140625 195.84478759765625 Q 281.4150390625 196.81158447265625 281.4150390625 198.27935791015625 Z  M 281.4150390625 189.49029541015625 Q 281.4150390625 191.62603759765625 280.1142578125 192.86090087890625 Q 278.8134765625 194.09576416015625 276.501953125 194.09576416015625 Q 274.1728515625 194.09576416015625 272.8017578125 192.94879150390625 Q 271.4306640625 191.80181884765625 271.4306640625 189.86822509765625 Q 271.4306640625 188.05767822265625 272.62158203125 187.00299072265625 Q 273.8125 185.94830322265625 275.763671875 185.94830322265625 L 276.6865234375 185.94830322265625 L 276.6865234375 192.58404541015625 Q 278.3828125 192.54010009765625 279.26171875 191.72711181640625 Q 280.140625 190.91412353515625 280.140625 189.43756103515625 Q 280.140625 187.88189697265625 279.490234375 186.36138916015625 L 280.791015625 186.36138916015625 Q 281.125 187.13482666015625 281.27001953125 187.82476806640625 Q 281.4150390625 188.51470947265625 281.4150390625 189.49029541015625 Z  M 272.65234375 189.88580322265625 Q 272.65234375 191.04595947265625 273.408203125 191.73590087890625 Q 274.1640625 192.42584228515625 275.5 192.54888916015625 L 275.5 187.51275634765625 Q 274.1201171875 187.51275634765625 273.38623046875 188.12799072265625 Q 272.65234375 188.74322509765625 272.65234375 189.88580322265625 Z  M 278.611328125 177.24713134765625 Q 279.9560546875 177.24713134765625 280.685546875 178.24908447265625 Q 281.4150390625 179.25103759765625 281.4150390625 181.06158447265625 Q 281.4150390625 182.97760009765625 280.80859375 184.04986572265625 L 279.455078125 184.04986572265625 Q 279.806640625 183.35552978515625 280.0087890625 182.56011962890625 Q 280.2109375 181.76470947265625 280.2109375 181.02642822265625 Q 280.2109375 179.88385009765625 279.84619140625 179.26861572265625 Q 279.4814453125 178.65338134765625 278.734375 178.65338134765625 Q 278.171875 178.65338134765625 277.77197265625 179.14117431640625 Q 277.3720703125 179.62896728515625 276.8271484375 181.04400634765625 Q 276.326171875 182.38873291015625 275.95263671875 182.95562744140625 Q 275.5791015625 183.52252197265625 275.1044921875 183.79937744140625 Q 274.6298828125 184.07623291015625 273.970703125 184.07623291015625 Q 272.79296875 184.07623291015625 272.11181640625 183.11822509765625 Q 271.4306640625 182.16021728515625 271.4306640625 180.49029541015625 Q 271.4306640625 178.93463134765625 272.0634765625 177.44927978515625 L 273.25 177.96783447265625 Q 272.65234375 179.41802978515625 272.65234375 180.59576416015625 Q 272.65234375 181.63287353515625 272.9775390625 182.16021728515625 Q 273.302734375 182.68756103515625 273.8740234375 182.68756103515625 Q 274.2607421875 182.68756103515625 274.533203125 182.48980712890625 Q 274.8056640625 182.29205322265625 275.0517578125 181.85260009765625 Q 275.2978515625 181.41314697265625 275.763671875 180.16510009765625 Q 276.3876953125 178.45123291015625 277.0205078125 177.84918212890625 Q 277.6533203125 177.24713134765625 278.611328125 177.24713134765625 Z  M 278.611328125 168.66021728515625 Q 279.9560546875 168.66021728515625 280.685546875 169.66217041015625 Q 281.4150390625 170.66412353515625 281.4150390625 172.47467041015625 Q 281.4150390625 174.39068603515625 280.80859375 175.46295166015625 L 279.455078125 175.46295166015625 Q 279.806640625 174.76861572265625 280.0087890625 173.97320556640625 Q 280.2109375 173.17779541015625 280.2109375 172.43951416015625 Q 280.2109375 171.29693603515625 279.84619140625 170.68170166015625 Q 279.4814453125 170.06646728515625 278.734375 170.06646728515625 Q 278.171875 170.06646728515625 277.77197265625 170.55426025390625 Q 277.3720703125 171.04205322265625 276.8271484375 172.45709228515625 Q 276.326171875 173.80181884765625 275.95263671875 174.36871337890625 Q 275.5791015625 174.93560791015625 275.1044921875 175.21246337890625 Q 274.6298828125 175.48931884765625 273.970703125 175.48931884765625 Q 272.79296875 175.48931884765625 272.11181640625 174.53131103515625 Q 271.4306640625 173.57330322265625 271.4306640625 171.90338134765625 Q 271.4306640625 170.34771728515625 272.0634765625 168.86236572265625 L 273.25 169.38092041015625 Q 272.65234375 170.83111572265625 272.65234375 172.00885009765625 Q 272.65234375 173.04595947265625 272.9775390625 173.57330322265625 Q 273.302734375 174.10064697265625 273.8740234375 174.10064697265625 Q 274.2607421875 174.10064697265625 274.533203125 173.90289306640625 Q 274.8056640625 173.70513916015625 275.0517578125 173.26568603515625 Q 275.2978515625 172.82623291015625 275.763671875 171.57818603515625 Q 276.3876953125 169.86431884765625 277.0205078125 169.26226806640625 Q 277.6533203125 168.66021728515625 278.611328125 168.66021728515625 Z  M 276.4140625 157.97271728515625 Q 278.76953125 157.97271728515625 280.09228515625 159.15924072265625 Q 281.4150390625 160.34576416015625 281.4150390625 162.43756103515625 Q 281.4150390625 163.72955322265625 280.80859375 164.73150634765625 Q 280.2021484375 165.73345947265625 279.068359375 166.27838134765625 Q 277.9345703125 166.82330322265625 276.4140625 166.82330322265625 Q 274.05859375 166.82330322265625 272.74462890625 165.64556884765625 Q 271.4306640625 164.46783447265625 271.4306640625 162.37603759765625 Q 271.4306640625 160.35455322265625 272.775390625 159.16363525390625 Q 274.1201171875 157.97271728515625 276.4140625 157.97271728515625 Z  M 276.4140625 165.31158447265625 Q 278.259765625 165.31158447265625 279.2265625 164.57330322265625 Q 280.193359375 163.83502197265625 280.193359375 162.40240478515625 Q 280.193359375 160.96978759765625 279.23095703125 160.22711181640625 Q 278.2685546875 159.48443603515625 276.4140625 159.48443603515625 Q 274.5771484375 159.48443603515625 273.62353515625 160.22711181640625 Q 272.669921875 160.96978759765625 272.669921875 162.41998291015625 Q 272.669921875 163.85260009765625 273.6103515625 164.58209228515625 Q 274.55078125 165.31158447265625 276.4140625 165.31158447265625 Z "
           id="path99"
           fill-rule="evenodd"
           fill="rgb(0,0,0)" />
        <path
           d=" M 152.671875 497.376953125 L 144.712890625 497.376953125 L 144.712890625 483.099609375 L 152.671875 483.099609375 L 152.671875 484.57421875 L 146.373046875 484.57421875 L 146.373046875 489.173828125 L 152.291015625 489.173828125 L 152.291015625 490.638671875 L 146.373046875 490.638671875 L 146.373046875 495.892578125 L 152.671875 495.892578125 L 152.671875 497.376953125 Z  M 162.49609375 494.45703125 Q 162.49609375 495.951171875 161.3828125 496.76171875 Q 160.26953125 497.572265625 158.2578125 497.572265625 Q 156.12890625 497.572265625 154.9375 496.8984375 L 154.9375 495.39453125 Q 155.708984375 495.78515625 156.5927734375 496.009765625 Q 157.4765625 496.234375 158.296875 496.234375 Q 159.56640625 496.234375 160.25 495.8291015625 Q 160.93359375 495.423828125 160.93359375 494.59375 Q 160.93359375 493.96875 160.3916015625 493.5244140625 Q 159.849609375 493.080078125 158.27734375 492.474609375 Q 156.783203125 491.91796875 156.1533203125 491.5029296875 Q 155.5234375 491.087890625 155.2158203125 490.560546875 Q 154.908203125 490.033203125 154.908203125 489.30078125 Q 154.908203125 487.9921875 155.97265625 487.2353515625 Q 157.037109375 486.478515625 158.892578125 486.478515625 Q 160.62109375 486.478515625 162.271484375 487.181640625 L 161.6953125 488.5 Q 160.083984375 487.8359375 158.775390625 487.8359375 Q 157.623046875 487.8359375 157.037109375 488.197265625 Q 156.451171875 488.55859375 156.451171875 489.193359375 Q 156.451171875 489.623046875 156.6708984375 489.92578125 Q 156.890625 490.228515625 157.37890625 490.501953125 Q 157.8671875 490.775390625 159.25390625 491.29296875 Q 161.158203125 491.986328125 161.8271484375 492.689453125 Q 162.49609375 493.392578125 162.49609375 494.45703125 Z  M 169.41015625 497.572265625 Q 167.0859375 497.572265625 165.8115234375 496.1416015625 Q 164.537109375 494.7109375 164.537109375 492.09375 Q 164.537109375 489.408203125 165.8310546875 487.943359375 Q 167.125 486.478515625 169.517578125 486.478515625 Q 170.2890625 486.478515625 171.060546875 486.64453125 Q 171.83203125 486.810546875 172.271484375 487.03515625 L 171.7734375 488.412109375 Q 171.236328125 488.197265625 170.6015625 488.0556640625 Q 169.966796875 487.9140625 169.478515625 487.9140625 Q 166.216796875 487.9140625 166.216796875 492.07421875 Q 166.216796875 494.046875 167.0126953125 495.1015625 Q 167.80859375 496.15625 169.37109375 496.15625 Q 170.708984375 496.15625 172.115234375 495.580078125 L 172.115234375 497.015625 Q 171.041015625 497.572265625 169.41015625 497.572265625 Z  M 181.236328125 497.376953125 L 180.9140625 495.853515625 L 180.8359375 495.853515625 Q 180.03515625 496.859375 179.2392578125 497.2158203125 Q 178.443359375 497.572265625 177.251953125 497.572265625 Q 175.66015625 497.572265625 174.7568359375 496.751953125 Q 173.853515625 495.931640625 173.853515625 494.41796875 Q 173.853515625 491.17578125 179.0390625 491.01953125 L 180.85546875 490.9609375 L 180.85546875 490.296875 Q 180.85546875 489.037109375 180.3134765625 488.4365234375 Q 179.771484375 487.8359375 178.580078125 487.8359375 Q 177.2421875 487.8359375 175.552734375 488.65625 L 175.0546875 487.416015625 Q 175.845703125 486.986328125 176.7880859375 486.7421875 Q 177.73046875 486.498046875 178.677734375 486.498046875 Q 180.591796875 486.498046875 181.5146484375 487.34765625 Q 182.4375 488.197265625 182.4375 490.072265625 L 182.4375 497.376953125 L 181.236328125 497.376953125 Z  M 177.57421875 496.234375 Q 179.087890625 496.234375 179.9521484375 495.404296875 Q 180.81640625 494.57421875 180.81640625 493.080078125 L 180.81640625 492.11328125 L 179.1953125 492.181640625 Q 177.26171875 492.25 176.4072265625 492.7822265625 Q 175.552734375 493.314453125 175.552734375 494.4375 Q 175.552734375 495.31640625 176.0849609375 495.775390625 Q 176.6171875 496.234375 177.57421875 496.234375 Z  M 193.0625 495.94140625 L 192.974609375 495.94140625 Q 191.8515625 497.572265625 189.615234375 497.572265625 Q 187.515625 497.572265625 186.3486328125 496.13671875 Q 185.181640625 494.701171875 185.181640625 492.0546875 Q 185.181640625 489.408203125 186.353515625 487.943359375 Q 187.525390625 486.478515625 189.615234375 486.478515625 Q 191.79296875 486.478515625 192.955078125 488.060546875 L 193.08203125 488.060546875 L 193.013671875 487.2890625 L 192.974609375 486.537109375 L 192.974609375 482.181640625 L 194.595703125 482.181640625 L 194.595703125 497.376953125 L 193.27734375 497.376953125 L 193.0625 495.94140625 Z  M 189.8203125 496.21484375 Q 191.48046875 496.21484375 192.2275390625 495.3115234375 Q 192.974609375 494.408203125 192.974609375 492.396484375 L 192.974609375 492.0546875 Q 192.974609375 489.779296875 192.2177734375 488.8076171875 Q 191.4609375 487.8359375 189.80078125 487.8359375 Q 188.375 487.8359375 187.6181640625 488.9443359375 Q 186.861328125 490.052734375 186.861328125 492.07421875 Q 186.861328125 494.125 187.61328125 495.169921875 Q 188.365234375 496.21484375 189.8203125 496.21484375 Z  M 204.615234375 497.376953125 L 204.29296875 495.853515625 L 204.21484375 495.853515625 Q 203.4140625 496.859375 202.6181640625 497.2158203125 Q 201.822265625 497.572265625 200.630859375 497.572265625 Q 199.0390625 497.572265625 198.1357421875 496.751953125 Q 197.232421875 495.931640625 197.232421875 494.41796875 Q 197.232421875 491.17578125 202.41796875 491.01953125 L 204.234375 490.9609375 L 204.234375 490.296875 Q 204.234375 489.037109375 203.6923828125 488.4365234375 Q 203.150390625 487.8359375 201.958984375 487.8359375 Q 200.62109375 487.8359375 198.931640625 488.65625 L 198.43359375 487.416015625 Q 199.224609375 486.986328125 200.1669921875 486.7421875 Q 201.109375 486.498046875 202.056640625 486.498046875 Q 203.970703125 486.498046875 204.8935546875 487.34765625 Q 205.81640625 488.197265625 205.81640625 490.072265625 L 205.81640625 497.376953125 L 204.615234375 497.376953125 Z  M 200.953125 496.234375 Q 202.466796875 496.234375 203.3310546875 495.404296875 Q 204.1953125 494.57421875 204.1953125 493.080078125 L 204.1953125 492.11328125 L 202.57421875 492.181640625 Q 200.640625 492.25 199.7861328125 492.7822265625 Q 198.931640625 493.314453125 198.931640625 494.4375 Q 198.931640625 495.31640625 199.4638671875 495.775390625 Q 199.99609375 496.234375 200.953125 496.234375 Z  M 216.060546875 494.45703125 Q 216.060546875 495.951171875 214.947265625 496.76171875 Q 213.833984375 497.572265625 211.822265625 497.572265625 Q 209.693359375 497.572265625 208.501953125 496.8984375 L 208.501953125 495.39453125 Q 209.2734375 495.78515625 210.1572265625 496.009765625 Q 211.041015625 496.234375 211.861328125 496.234375 Q 213.130859375 496.234375 213.814453125 495.8291015625 Q 214.498046875 495.423828125 214.498046875 494.59375 Q 214.498046875 493.96875 213.9560546875 493.5244140625 Q 213.4140625 493.080078125 211.841796875 492.474609375 Q 210.34765625 491.91796875 209.7177734375 491.5029296875 Q 209.087890625 491.087890625 208.7802734375 490.560546875 Q 208.47265625 490.033203125 208.47265625 489.30078125 Q 208.47265625 487.9921875 209.537109375 487.2353515625 Q 210.6015625 486.478515625 212.45703125 486.478515625 Q 214.185546875 486.478515625 215.8359375 487.181640625 L 215.259765625 488.5 Q 213.6484375 487.8359375 212.33984375 487.8359375 Q 211.1875 487.8359375 210.6015625 488.197265625 Q 210.015625 488.55859375 210.015625 489.193359375 Q 210.015625 489.623046875 210.2353515625 489.92578125 Q 210.455078125 490.228515625 210.943359375 490.501953125 Q 211.431640625 490.775390625 212.818359375 491.29296875 Q 214.72265625 491.986328125 215.3916015625 492.689453125 Q 216.060546875 493.392578125 216.060546875 494.45703125 Z "
           id="path101"
           fill-rule="evenodd"
           fill="rgb(0,0,0)" />
        <path
           d=" M 381.421875 500.376953125 L 373.462890625 500.376953125 L 373.462890625 486.099609375 L 381.421875 486.099609375 L 381.421875 487.57421875 L 375.123046875 487.57421875 L 375.123046875 492.173828125 L 381.041015625 492.173828125 L 381.041015625 493.638671875 L 375.123046875 493.638671875 L 375.123046875 498.892578125 L 381.421875 498.892578125 L 381.421875 500.376953125 Z  M 391.24609375 497.45703125 Q 391.24609375 498.951171875 390.1328125 499.76171875 Q 389.01953125 500.572265625 387.0078125 500.572265625 Q 384.87890625 500.572265625 383.6875 499.8984375 L 383.6875 498.39453125 Q 384.458984375 498.78515625 385.3427734375 499.009765625 Q 386.2265625 499.234375 387.046875 499.234375 Q 388.31640625 499.234375 389 498.8291015625 Q 389.68359375 498.423828125 389.68359375 497.59375 Q 389.68359375 496.96875 389.1416015625 496.5244140625 Q 388.599609375 496.080078125 387.02734375 495.474609375 Q 385.533203125 494.91796875 384.9033203125 494.5029296875 Q 384.2734375 494.087890625 383.9658203125 493.560546875 Q 383.658203125 493.033203125 383.658203125 492.30078125 Q 383.658203125 490.9921875 384.72265625 490.2353515625 Q 385.787109375 489.478515625 387.642578125 489.478515625 Q 389.37109375 489.478515625 391.021484375 490.181640625 L 390.4453125 491.5 Q 388.833984375 490.8359375 387.525390625 490.8359375 Q 386.373046875 490.8359375 385.787109375 491.197265625 Q 385.201171875 491.55859375 385.201171875 492.193359375 Q 385.201171875 492.623046875 385.4208984375 492.92578125 Q 385.640625 493.228515625 386.12890625 493.501953125 Q 386.6171875 493.775390625 388.00390625 494.29296875 Q 389.908203125 494.986328125 390.5771484375 495.689453125 Q 391.24609375 496.392578125 391.24609375 497.45703125 Z  M 398.16015625 500.572265625 Q 395.8359375 500.572265625 394.5615234375 499.1416015625 Q 393.287109375 497.7109375 393.287109375 495.09375 Q 393.287109375 492.408203125 394.5810546875 490.943359375 Q 395.875 489.478515625 398.267578125 489.478515625 Q 399.0390625 489.478515625 399.810546875 489.64453125 Q 400.58203125 489.810546875 401.021484375 490.03515625 L 400.5234375 491.412109375 Q 399.986328125 491.197265625 399.3515625 491.0556640625 Q 398.716796875 490.9140625 398.228515625 490.9140625 Q 394.966796875 490.9140625 394.966796875 495.07421875 Q 394.966796875 497.046875 395.7626953125 498.1015625 Q 396.55859375 499.15625 398.12109375 499.15625 Q 399.458984375 499.15625 400.865234375 498.580078125 L 400.865234375 500.015625 Q 399.791015625 500.572265625 398.16015625 500.572265625 Z  M 409.986328125 500.376953125 L 409.6640625 498.853515625 L 409.5859375 498.853515625 Q 408.78515625 499.859375 407.9892578125 500.2158203125 Q 407.193359375 500.572265625 406.001953125 500.572265625 Q 404.41015625 500.572265625 403.5068359375 499.751953125 Q 402.603515625 498.931640625 402.603515625 497.41796875 Q 402.603515625 494.17578125 407.7890625 494.01953125 L 409.60546875 493.9609375 L 409.60546875 493.296875 Q 409.60546875 492.037109375 409.0634765625 491.4365234375 Q 408.521484375 490.8359375 407.330078125 490.8359375 Q 405.9921875 490.8359375 404.302734375 491.65625 L 403.8046875 490.416015625 Q 404.595703125 489.986328125 405.5380859375 489.7421875 Q 406.48046875 489.498046875 407.427734375 489.498046875 Q 409.341796875 489.498046875 410.2646484375 490.34765625 Q 411.1875 491.197265625 411.1875 493.072265625 L 411.1875 500.376953125 L 409.986328125 500.376953125 Z  M 406.32421875 499.234375 Q 407.837890625 499.234375 408.7021484375 498.404296875 Q 409.56640625 497.57421875 409.56640625 496.080078125 L 409.56640625 495.11328125 L 407.9453125 495.181640625 Q 406.01171875 495.25 405.1572265625 495.7822265625 Q 404.302734375 496.314453125 404.302734375 497.4375 Q 404.302734375 498.31640625 404.8349609375 498.775390625 Q 405.3671875 499.234375 406.32421875 499.234375 Z  M 421.8125 498.94140625 L 421.724609375 498.94140625 Q 420.6015625 500.572265625 418.365234375 500.572265625 Q 416.265625 500.572265625 415.0986328125 499.13671875 Q 413.931640625 497.701171875 413.931640625 495.0546875 Q 413.931640625 492.408203125 415.103515625 490.943359375 Q 416.275390625 489.478515625 418.365234375 489.478515625 Q 420.54296875 489.478515625 421.705078125 491.060546875 L 421.83203125 491.060546875 L 421.763671875 490.2890625 L 421.724609375 489.537109375 L 421.724609375 485.181640625 L 423.345703125 485.181640625 L 423.345703125 500.376953125 L 422.02734375 500.376953125 L 421.8125 498.94140625 Z  M 418.5703125 499.21484375 Q 420.23046875 499.21484375 420.9775390625 498.3115234375 Q 421.724609375 497.408203125 421.724609375 495.396484375 L 421.724609375 495.0546875 Q 421.724609375 492.779296875 420.9677734375 491.8076171875 Q 420.2109375 490.8359375 418.55078125 490.8359375 Q 417.125 490.8359375 416.3681640625 491.9443359375 Q 415.611328125 493.052734375 415.611328125 495.07421875 Q 415.611328125 497.125 416.36328125 498.169921875 Q 417.115234375 499.21484375 418.5703125 499.21484375 Z  M 433.365234375 500.376953125 L 433.04296875 498.853515625 L 432.96484375 498.853515625 Q 432.1640625 499.859375 431.3681640625 500.2158203125 Q 430.572265625 500.572265625 429.380859375 500.572265625 Q 427.7890625 500.572265625 426.8857421875 499.751953125 Q 425.982421875 498.931640625 425.982421875 497.41796875 Q 425.982421875 494.17578125 431.16796875 494.01953125 L 432.984375 493.9609375 L 432.984375 493.296875 Q 432.984375 492.037109375 432.4423828125 491.4365234375 Q 431.900390625 490.8359375 430.708984375 490.8359375 Q 429.37109375 490.8359375 427.681640625 491.65625 L 427.18359375 490.416015625 Q 427.974609375 489.986328125 428.9169921875 489.7421875 Q 429.859375 489.498046875 430.806640625 489.498046875 Q 432.720703125 489.498046875 433.6435546875 490.34765625 Q 434.56640625 491.197265625 434.56640625 493.072265625 L 434.56640625 500.376953125 L 433.365234375 500.376953125 Z  M 429.703125 499.234375 Q 431.216796875 499.234375 432.0810546875 498.404296875 Q 432.9453125 497.57421875 432.9453125 496.080078125 L 432.9453125 495.11328125 L 431.32421875 495.181640625 Q 429.390625 495.25 428.5361328125 495.7822265625 Q 427.681640625 496.314453125 427.681640625 497.4375 Q 427.681640625 498.31640625 428.2138671875 498.775390625 Q 428.74609375 499.234375 429.703125 499.234375 Z  M 444.810546875 497.45703125 Q 444.810546875 498.951171875 443.697265625 499.76171875 Q 442.583984375 500.572265625 440.572265625 500.572265625 Q 438.443359375 500.572265625 437.251953125 499.8984375 L 437.251953125 498.39453125 Q 438.0234375 498.78515625 438.9072265625 499.009765625 Q 439.791015625 499.234375 440.611328125 499.234375 Q 441.880859375 499.234375 442.564453125 498.8291015625 Q 443.248046875 498.423828125 443.248046875 497.59375 Q 443.248046875 496.96875 442.7060546875 496.5244140625 Q 442.1640625 496.080078125 440.591796875 495.474609375 Q 439.09765625 494.91796875 438.4677734375 494.5029296875 Q 437.837890625 494.087890625 437.5302734375 493.560546875 Q 437.22265625 493.033203125 437.22265625 492.30078125 Q 437.22265625 490.9921875 438.287109375 490.2353515625 Q 439.3515625 489.478515625 441.20703125 489.478515625 Q 442.935546875 489.478515625 444.5859375 490.181640625 L 444.009765625 491.5 Q 442.3984375 490.8359375 441.08984375 490.8359375 Q 439.9375 490.8359375 439.3515625 491.197265625 Q 438.765625 491.55859375 438.765625 492.193359375 Q 438.765625 492.623046875 438.9853515625 492.92578125 Q 439.205078125 493.228515625 439.693359375 493.501953125 Q 440.181640625 493.775390625 441.568359375 494.29296875 Q 443.47265625 494.986328125 444.1416015625 495.689453125 Q 444.810546875 496.392578125 444.810546875 497.45703125 Z "
           id="path103"
           fill-rule="evenodd"
           fill="rgb(0,0,0)" />
        <text
           xml:space="preserve"
           style="font-size:18.66666603px;line-height:0;font-family:sans-serif"
           x="-833.31152"
           y="50.398277"
           id="text161"
           transform="matrix(7.358642e-4,-0.99913332,1.0008981,-0.04162428,0,0)"><tspan
             sodipodi:role="line"
             id="tspan159"
             x="-833.31152"
             y="50.398277"
             style="font-size:14.66666698px">Sala de Aula</tspan></text>
        <text
           xml:space="preserve"
           style="font-size:18.66666603px;line-height:0;font-family:sans-serif"
           x="-836.7973"
           y="148.14665"
           id="text161-9"
           transform="matrix(7.358642e-4,-0.99913331,1.0008981,-0.04162428,0,0)"><tspan
             sodipodi:role="line"
             id="tspan159-1"
             x="-836.7973"
             y="148.14665"
             style="font-size:14.66666698px">Sala de Aula</tspan></text>
        <text
           xml:space="preserve"
           style="font-size:18.66666603px;line-height:0;font-family:sans-serif"
           x="-732.50146"
           y="50.723038"
           id="text161-2"
           transform="matrix(7.358642e-4,-0.99913331,1.0008981,-0.04162428,0,0)"><tspan
             sodipodi:role="line"
             id="tspan159-7"
             x="-732.50146"
             y="50.723038"
             style="font-size:14.66666698px">Sala de Aula</tspan></text>
        <text
           xml:space="preserve"
           style="font-size:18.66666603px;line-height:0;font-family:sans-serif"
           x="-736.5871"
           y="148.7894"
           id="text161-0"
           transform="matrix(7.358642e-4,-0.99913331,1.0008981,-0.04162428,0,0)"><tspan
             sodipodi:role="line"
             id="tspan159-9"
             x="-736.5871"
             y="148.7894"
             style="font-size:14.66666698px">Sala de Aula</tspan></text>
        <text
           xml:space="preserve"
           style="font-size:18.66666603px;line-height:0;font-family:sans-serif"
           x="-636.85138"
           y="148.82399"
           id="text161-3"
           transform="matrix(7.358642e-4,-0.99913331,1.0008981,-0.04162428,0,0)"><tspan
             sodipodi:role="line"
             id="tspan159-6"
             x="-636.85138"
             y="148.82399"
             style="font-size:10.66666698px">Sala de Desenho</tspan></text>
        <text
           xml:space="preserve"
           style="font-size:22px;font-style:normal;font-weight:normal;line-height:125%;letter-spacing:0px;word-spacing:0px;fill:#000000;fill-opacity:1;stroke:none;font-family:Sans"
           x="380.63052"
           y="269.60294"
           id="text3063"
           sodipodi:linespacing="125%"><tspan
             sodipodi:role="line"
             id="tspan3065"
             x="380.63052"
             y="269.60294">B1-13</tspan></text>
        <text
           xml:space="preserve"
           style="font-size:22px;font-style:normal;font-weight:normal;line-height:125%;letter-spacing:0px;word-spacing:0px;fill:#000000;fill-opacity:1;stroke:none;font-family:Sans"
           x="404.16855"
           y="793.7207"
           id="text3063-1"
           sodipodi:linespacing="125%"><tspan
             sodipodi:role="line"
             id="tspan3065-7"
             x="404.16855"
             y="793.7207">B1-1</tspan></text>
        <text
           xml:space="preserve"
           style="font-size:22px;font-style:normal;font-weight:normal;line-height:125%;letter-spacing:0px;word-spacing:0px;fill:#000000;fill-opacity:1;stroke:none;font-family:Sans"
           x="502.41452"
           y="793.7207"
           id="text3063-4"
           sodipodi:linespacing="125%"><tspan
             sodipodi:role="line"
             id="tspan3065-0"
             x="502.41452"
             y="793.7207">B1-2</tspan></text>
        <text
           xml:space="preserve"
           style="font-size:22px;font-style:normal;font-weight:normal;line-height:125%;letter-spacing:0px;word-spacing:0px;fill:#000000;fill-opacity:1;stroke:none;font-family:Sans"
           x="402.73425"
           y="693.32336"
           id="text3063-9"
           sodipodi:linespacing="125%"><tspan
             sodipodi:role="line"
             id="tspan3065-4"
             x="402.73425"
             y="693.32336">B1-3</tspan></text>
        <text
           xml:space="preserve"
           style="font-size:22px;font-style:normal;font-weight:normal;line-height:125%;letter-spacing:0px;word-spacing:0px;fill:#000000;fill-opacity:1;stroke:none;font-family:Sans"
           x="501.69739"
           y="692.6062"
           id="text3063-8"
           sodipodi:linespacing="125%"><tspan
             sodipodi:role="line"
             id="tspan3065-8"
             x="501.69739"
             y="692.6062">B1-4</tspan></text>
        <text
           xml:space="preserve"
           style="font-size:22px;font-style:normal;font-weight:normal;line-height:125%;letter-spacing:0px;word-spacing:0px;fill:#000000;fill-opacity:1;stroke:none;font-family:Sans"
           x="402.01715"
           y="595.79449"
           id="text3063-2"
           sodipodi:linespacing="125%"><tspan
             sodipodi:role="line"
             id="tspan3065-45"
             x="402.01715"
             y="595.79449">B1-5</tspan></text>
        <text
           xml:space="preserve"
           style="font-size:22px;font-style:normal;font-weight:normal;line-height:125%;letter-spacing:0px;word-spacing:0px;fill:#000000;fill-opacity:1;stroke:none;font-family:Sans"
           x="503.13162"
           y="595.79456"
           id="text3063-5"
           sodipodi:linespacing="125%"><tspan
             sodipodi:role="line"
             id="tspan3065-1"
             x="503.13162"
             y="595.79456">B1-6</tspan></text>
        <text
           xml:space="preserve"
           style="font-size:22px;font-style:normal;font-weight:normal;line-height:125%;letter-spacing:0px;word-spacing:0px;fill:#000000;fill-opacity:1;stroke:none;font-family:Sans"
           x="519.62549"
           y="486.07455"
           id="text3063-7"
           sodipodi:linespacing="125%"><tspan
             sodipodi:role="line"
             id="tspan3065-11"
             x="519.62549"
             y="486.07455">B1-8</tspan></text>
        <text
           xml:space="preserve"
           style="font-size:22px;font-style:normal;font-weight:normal;line-height:125%;letter-spacing:0px;word-spacing:0px;fill:#000000;fill-opacity:1;stroke:none;font-family:Sans"
           x="520.34259"
           y="367.03201"
           id="text3063-52"
           sodipodi:linespacing="125%"><tspan
             sodipodi:role="line"
             id="tspan3065-76"
             x="520.34259"
             y="367.03201">B1-9</tspan></text>
        <text
           xml:space="preserve"
           style="font-size:22px;font-style:normal;font-weight:normal;line-height:125%;letter-spacing:0px;word-spacing:0px;fill:#000000;fill-opacity:1;stroke:none;font-family:Sans"
           x="511.73712"
           y="268.06894"
           id="text3063-14"
           sodipodi:linespacing="125%"><tspan
             sodipodi:role="line"
             id="tspan3065-2"
             x="511.73712"
             y="268.06894">B1-14</tspan></text>
        <text
           xml:space="preserve"
           style="font-size:22px;font-style:normal;font-weight:normal;line-height:125%;letter-spacing:0px;word-spacing:0px;fill:#000000;fill-opacity:1;stroke:none;font-family:Sans"
           x="377.63495"
           y="187.03392"
           id="text3063-3"
           sodipodi:linespacing="125%"><tspan
             sodipodi:role="line"
             id="tspan3065-22"
             x="377.63495"
             y="187.03392">B1-13.1</tspan><tspan
             sodipodi:role="line"
             x="377.63495"
             y="214.53392"
             id="tspan3352">      16.1</tspan></text>
        <text
           xml:space="preserve"
           style="font-size:22px;font-style:normal;font-weight:normal;line-height:125%;letter-spacing:0px;word-spacing:0px;fill:#000000;fill-opacity:1;stroke:none;font-family:Sans"
           x="508.86859"
           y="185.59967"
           id="text3063-16"
           sodipodi:linespacing="125%"><tspan
             sodipodi:role="line"
             id="tspan3065-85"
             x="508.86859"
             y="185.59967">B1-15</tspan><tspan
             sodipodi:role="line"
             x="508.86859"
             y="213.09967"
             id="tspan3354">      15.1</tspan></text>
        <text
           xml:space="preserve"
           style="font-size:22px;font-style:normal;font-weight:normal;line-height:125%;letter-spacing:0px;word-spacing:0px;fill:#000000;fill-opacity:1;stroke:none;font-family:Sans"
           x="375.48358"
           y="127.51264"
           id="text3063-76"
           sodipodi:linespacing="125%"><tspan
             sodipodi:role="line"
             id="tspan3065-18"
             x="375.48358"
             y="127.51264">B1-16</tspan></text>
        <text
           xml:space="preserve"
           style="font-size:22px;font-style:normal;font-weight:normal;line-height:125%;letter-spacing:0px;word-spacing:0px;fill:#000000;fill-opacity:1;stroke:none;font-family:Sans"
           x="513.17139"
           y="128.22977"
           id="text3063-92"
           sodipodi:linespacing="125%"><tspan
             sodipodi:role="line"
             id="tspan3065-79"
             x="513.17139"
             y="128.22977">B1-17</tspan></text>
        <text
           xml:space="preserve"
           style="font-size:22px;font-style:normal;font-weight:normal;line-height:125%;letter-spacing:0px;word-spacing:0px;fill:#000000;fill-opacity:1;stroke:none;font-family:Sans"
           x="55.646336"
           y="791.56934"
           id="text3063-54"
           sodipodi:linespacing="125%"><tspan
             sodipodi:role="line"
             id="tspan3065-3"
             x="55.646336"
             y="791.56934">A1-1</tspan></text>
        <text
           xml:space="preserve"
           style="font-size:22px;font-style:normal;font-weight:normal;line-height:125%;letter-spacing:0px;word-spacing:0px;fill:#000000;fill-opacity:1;stroke:none;font-family:Sans"
           x="155.90303"
           y="790.27472"
           id="text3063-54-8"
           sodipodi:linespacing="125%"><tspan
             sodipodi:role="line"
             id="tspan3065-3-7"
             x="155.90303"
             y="790.27472">A1-2</tspan></text>
        <text
           xml:space="preserve"
           style="font-size:22px;font-style:normal;font-weight:normal;line-height:125%;letter-spacing:0px;word-spacing:0px;fill:#000000;fill-opacity:1;stroke:none;font-family:Sans"
           x="56.222813"
           y="694.18018"
           id="text3063-54-4"
           sodipodi:linespacing="125%"><tspan
             sodipodi:role="line"
             id="tspan3065-3-2"
             x="56.222813"
             y="694.18018">A1-3</tspan></text>
        <text
           xml:space="preserve"
           style="font-size:22px;font-style:normal;font-weight:normal;line-height:125%;letter-spacing:0px;word-spacing:0px;fill:#000000;fill-opacity:1;stroke:none;font-family:Sans"
           x="158.0544"
           y="692.74591"
           id="text3063-54-7"
           sodipodi:linespacing="125%"><tspan
             sodipodi:role="line"
             id="tspan3065-3-79"
             x="158.0544"
             y="692.74591">A1-4</tspan></text>
        <text
           xml:space="preserve"
           style="font-size:22px;font-style:normal;font-weight:normal;line-height:125%;letter-spacing:0px;word-spacing:0px;fill:#000000;fill-opacity:1;stroke:none;font-family:Sans"
           x="56.222816"
           y="598.80267"
           id="text3063-54-3"
           sodipodi:linespacing="125%"><tspan
             sodipodi:role="line"
             id="tspan3065-3-1"
             x="56.222816"
             y="598.80267">A1-5</tspan></text>
        <text
           xml:space="preserve"
           style="font-size:22px;font-style:normal;font-weight:normal;line-height:125%;letter-spacing:0px;word-spacing:0px;fill:#000000;fill-opacity:1;stroke:none;font-family:Sans"
           x="155.90303"
           y="599.51978"
           id="text3063-54-9"
           sodipodi:linespacing="125%"><tspan
             sodipodi:role="line"
             id="tspan3065-3-8"
             x="155.90303"
             y="599.51978">A1-6</tspan></text>
        <text
           xml:space="preserve"
           style="font-size:22px;font-style:normal;font-weight:normal;line-height:125%;letter-spacing:0px;word-spacing:0px;fill:#000000;fill-opacity:1;stroke:none;font-family:Sans"
           x="41.880337"
           y="504.14233"
           id="text3063-54-6"
           sodipodi:linespacing="125%"><tspan
             sodipodi:role="line"
             id="tspan3065-3-5"
             x="41.880337"
             y="504.14233">A1-7</tspan></text>
        <text
           xml:space="preserve"
           style="font-size:22px;font-style:normal;font-weight:normal;line-height:125%;letter-spacing:0px;word-spacing:0px;fill:#000000;fill-opacity:1;stroke:none;font-family:Sans"
           x="33.991978"
           y="433.14703"
           id="text3063-54-0"
           sodipodi:linespacing="125%"><tspan
             sodipodi:role="line"
             id="tspan3065-3-28"
             x="33.991978"
             y="433.14703">A1-9</tspan></text>
        <text
           xml:space="preserve"
           style="font-size:22px;font-style:normal;font-weight:normal;line-height:125%;letter-spacing:0px;word-spacing:0px;fill:#000000;fill-opacity:1;stroke:none;font-family:Sans"
           x="39.011841"
           y="357.84906"
           id="text3063-54-60"
           sodipodi:linespacing="125%"><tspan
             sodipodi:role="line"
             id="tspan3065-3-24"
             x="39.011841"
             y="357.84906">A1-10</tspan></text>
        <text
           xml:space="preserve"
           style="font-size:22px;font-style:normal;font-weight:normal;line-height:125%;letter-spacing:0px;word-spacing:0px;fill:#000000;fill-opacity:1;stroke:none;font-family:Sans"
           x="36.143345"
           y="267.49142"
           id="text3063-54-86"
           sodipodi:linespacing="125%"><tspan
             sodipodi:role="line"
             id="tspan3065-3-50"
             x="36.143345"
             y="267.49142">A1-14</tspan></text>
        <text
           xml:space="preserve"
           style="font-size:22px;font-style:normal;font-weight:normal;line-height:125%;letter-spacing:0px;word-spacing:0px;fill:#000000;fill-opacity:1;stroke:none;font-family:Sans"
           x="168.09413"
           y="266.77432"
           id="text3063-54-90"
           sodipodi:linespacing="125%"><tspan
             sodipodi:role="line"
             id="tspan3065-3-0"
             x="168.09413"
             y="266.77432">A1-15</tspan></text>
        <text
           xml:space="preserve"
           style="font-size:22px;font-style:normal;font-weight:normal;line-height:125%;letter-spacing:0px;word-spacing:0px;fill:#000000;fill-opacity:1;stroke:none;font-family:Sans"
           x="37.577595"
           y="197.2133"
           id="text3063-54-61"
           sodipodi:linespacing="125%"><tspan
             sodipodi:role="line"
             id="tspan3065-3-3"
             x="37.577595"
             y="197.2133">A1-16</tspan></text>
        <text
           xml:space="preserve"
           style="font-size:22px;font-style:normal;font-weight:normal;line-height:125%;letter-spacing:0px;word-spacing:0px;fill:#000000;fill-opacity:1;stroke:none;font-family:Sans"
           x="162.35713"
           y="199.36469"
           id="text3063-54-89"
           sodipodi:linespacing="125%"><tspan
             sodipodi:role="line"
             id="tspan3065-3-34"
             x="162.35713"
             y="199.36469">A1-17</tspan></text>
        <text
           xml:space="preserve"
           style="font-size:22px;font-style:normal;font-weight:normal;line-height:125%;letter-spacing:0px;word-spacing:0px;fill:#000000;fill-opacity:1;stroke:none;font-family:Sans"
           x="93.513252"
           y="124.06667"
           id="text3063-54-46"
           sodipodi:linespacing="125%"><tspan
             sodipodi:role="line"
             id="tspan3065-3-06"
             x="93.513252"
             y="124.06667">A1-18</tspan></text>
        <text
           xml:space="preserve"
           style="font-size:18.66666603px;line-height:0;font-family:sans-serif"
           x="-845.91083"
           y="394.17661"
           id="text161-9-6"
           transform="matrix(7.358642e-4,-0.99913331,1.0008981,-0.04162428,0,0)"><tspan
             sodipodi:role="line"
             id="tspan159-1-1"
             x="-845.91083"
             y="394.17661"
             style="font-size:14.66666698px">Sala de Aula</tspan></text>
        <text
           xml:space="preserve"
           style="font-size:18.66666603px;line-height:0;font-family:sans-serif"
           x="-853.02051"
           y="495.92203"
           id="text161-9-8"
           transform="matrix(7.358642e-4,-0.99913331,1.0008981,-0.04162428,0,0)"><tspan
             sodipodi:role="line"
             id="tspan159-1-4"
             x="-853.02051"
             y="495.92203"
             style="font-size:14.66666698px">Sala de Aula</tspan></text>
        <text
           xml:space="preserve"
           style="font-size:18.66666603px;line-height:0;font-family:sans-serif"
           x="-753.31055"
           y="497.28171"
           id="text161-9-9"
           transform="matrix(7.358642e-4,-0.99913331,1.0008981,-0.04162428,0,0)"><tspan
             sodipodi:role="line"
             id="tspan159-1-6"
             x="-753.31055"
             y="497.28171"
             style="font-size:14.66666698px">Sala de Aula</tspan></text>
        <text
           xml:space="preserve"
           style="font-size:18.66666603px;line-height:0;font-family:sans-serif"
           x="-748.32422"
           y="394.82135"
           id="text161-9-3"
           transform="matrix(7.358642e-4,-0.99913331,1.0008981,-0.04162428,0,0)"><tspan
             sodipodi:role="line"
             id="tspan159-1-7"
             x="-748.32422"
             y="394.82135"
             style="font-size:14.66666698px">Sala de Aula</tspan></text>
        <text
           xml:space="preserve"
           style="font-size:18.66666603px;line-height:0;font-family:sans-serif"
           x="-647.11896"
           y="394.74695"
           id="text161-9-88"
           transform="matrix(7.358642e-4,-0.99913331,1.0008981,-0.04162428,0,0)"><tspan
             sodipodi:role="line"
             id="tspan159-1-2"
             x="-647.11896"
             y="394.74695"
             style="font-size:14.66666698px">Sala de Aula</tspan></text>
        <text
           xml:space="preserve"
           style="font-size:18.66666603px;line-height:0;font-family:sans-serif"
           x="-652.79315"
           y="496.4913"
           id="text161-9-91"
           transform="matrix(7.358642e-4,-0.99913331,1.0008981,-0.04162428,0,0)"><tspan
             sodipodi:role="line"
             id="tspan159-1-3"
             x="-652.79315"
             y="496.4913"
             style="font-size:14.66666698px">Sala de Aula</tspan></text>
        <text
           xml:space="preserve"
           style="font-size:18.66666603px;line-height:0;font-family:sans-serif"
           x="-545.96515"
           y="499.27869"
           id="text161-9-5"
           transform="matrix(7.358642e-4,-0.99913331,1.0008981,-0.04162428,0,0)"><tspan
             sodipodi:role="line"
             id="tspan159-1-9"
             x="-545.96515"
             y="499.27869"
             style="font-size:14.66666698px">Anfiteatro - 1</tspan></text>
        <text
           xml:space="preserve"
           style="font-size:18.66666603px;line-height:0;font-family:sans-serif"
           x="-426.51544"
           y="498.47546"
           id="text161-9-5-7"
           transform="matrix(7.358642e-4,-0.99913331,1.0008981,-0.04162428,0,0)"><tspan
             sodipodi:role="line"
             id="tspan159-1-9-6"
             x="-426.51544"
             y="498.47546"
             style="font-size:14.66666698px">Anfiteatro - 2</tspan></text>
        <text
           xml:space="preserve"
           style="font-size:11.79082775px;line-height:0;font-family:sans-serif"
           x="-259.41815"
           y="448.10651"
           id="text161-9-91-5"
           transform="matrix(8.131118e-4,-0.90421325,1.1059677,-0.03766987,0,0)"><tspan
             sodipodi:role="line"
             id="tspan159-1-3-4"
             x="-259.41815"
             y="448.10651"
             style="font-size:9.2642231px">Sala de Apoio</tspan></text>
        <text
           xml:space="preserve"
           style="font-size:18.66666603px;line-height:0;font-family:sans-serif"
           x="-172.6785"
           y="360.72461"
           id="text161-9-5-7-2"
           transform="matrix(7.358642e-4,-0.99913331,1.0008981,-0.04162428,0,0)"><tspan
             sodipodi:role="line"
             id="tspan159-1-9-6-0"
             x="-172.6785"
             y="360.72461"
             style="font-size:14.66666698px">Laboratrio</tspan></text>
        <text
           xml:space="preserve"
           style="font-size:18.66666603px;line-height:0;font-family:sans-serif"
           x="-177.01392"
           y="496.78217"
           id="text161-9-5-7-2-6"
           transform="matrix(7.358642e-4,-0.99913331,1.0008981,-0.04162428,0,0)"><tspan
             sodipodi:role="line"
             id="tspan159-1-9-6-0-5"
             x="-177.01392"
             y="496.78217"
             style="font-size:14.66666698px">Laboratrio</tspan></text>
        <text
           xml:space="preserve"
           style="font-size:18.66666603px;line-height:0;font-family:sans-serif"
           x="-312.71289"
           y="360.03418"
           id="text161-9-5-7-2-7"
           transform="matrix(7.358642e-4,-0.99913331,1.0008981,-0.04162428,0,0)"><tspan
             sodipodi:role="line"
             id="tspan159-1-9-6-0-54"
             x="-312.71289"
             y="360.03418"
             style="font-size:14.66666698px">Laboratrio</tspan></text>
        <text
           xml:space="preserve"
           style="font-size:18.66666603px;line-height:0;font-family:sans-serif"
           x="-321.2554"
           y="496.17175"
           id="text161-9-5-7-2-1"
           transform="matrix(7.358642e-4,-0.99913331,1.0008981,-0.04162428,0,0)"><tspan
             sodipodi:role="line"
             id="tspan159-1-9-6-0-2"
             x="-321.2554"
             y="496.17175"
             style="font-size:14.66666698px">Laboratrio</tspan></text>
        <text
           xml:space="preserve"
           style="font-size:11.79082775px;line-height:0;font-family:sans-serif"
           x="-251.6067"
           y="323.5845"
           id="text161-9-91-5-0"
           transform="matrix(8.1311179e-4,-0.90421324,1.1059677,-0.03766987,0,0)"><tspan
             sodipodi:role="line"
             id="tspan159-1-3-4-0"
             x="-251.6067"
             y="323.5845"
             style="font-size:9.2642231px">Data Center</tspan></text>
        <rect
           style="fill:#ffff00"
           id="rect3642"
           width="111.87132"
           height="60.955528"
           x="133.38504"
           y="308.34961" />
        <rect
           style="fill:#ffff00"
           id="rect3642-0"
           width="111.87132"
           height="60.955528"
           x="345.65369"
           y="309.42529" />
        <rect
           style="fill:#000000"
           id="rect3662"
           width="111.1542"
           height="2.1513717"
           x="133.38504"
           y="338.46884" />
        <rect
           style="fill:#000000"
           id="rect3662-7"
           width="111.1542"
           height="2.1513717"
           x="346.01227"
           y="338.11026" />
        <text
           xml:space="preserve"
           style="font-size:22px;font-style:normal;font-weight:normal;line-height:125%;letter-spacing:0px;word-spacing:0px;fill:#000000;fill-opacity:1;stroke:none;font-family:Sans"
           x="135.53641"
           y="330.58044"
           id="text3820"
           sodipodi:linespacing="125%"><tspan
             sodipodi:role="line"
             id="tspan3822"
             x="135.53641"
             y="330.58044">Banheiro F</tspan></text>
        <text
           xml:space="preserve"
           style="font-size:22px;font-style:normal;font-weight:normal;line-height:125%;letter-spacing:0px;word-spacing:0px;fill:#000000;fill-opacity:1;stroke:none;font-family:Sans"
           x="347.43262"
           y="331.15436"
           id="text3820-1"
           sodipodi:linespacing="125%"><tspan
             sodipodi:role="line"
             id="tspan3822-7"
             x="347.43262"
             y="331.15436">Banheiro F</tspan></text>
        <text
           xml:space="preserve"
           style="font-size:22px;font-style:normal;font-weight:normal;line-height:125%;letter-spacing:0px;word-spacing:0px;fill:#000000;fill-opacity:1;stroke:none;font-family:Sans"
           x="133.01259"
           y="362.70776"
           id="text3820-7"
           sodipodi:linespacing="125%"><tspan
             sodipodi:role="line"
             id="tspan3822-77"
             x="133.01259"
             y="362.70776">Banheiro M</tspan></text>
        <text
           xml:space="preserve"
           style="font-size:22px;font-style:normal;font-weight:normal;line-height:125%;letter-spacing:0px;word-spacing:0px;fill:#000000;fill-opacity:1;stroke:none;font-family:Sans"
           x="346.03354"
           y="362.70779"
           id="text3820-7-3"
           sodipodi:linespacing="125%"><tspan
             sodipodi:role="line"
             id="tspan3822-77-3"
             x="346.03354"
             y="362.70779">Banheiro M</tspan></text>
        <text
           xml:space="preserve"
           style="font-size:16.52959251px;line-height:0;font-family:sans-serif"
           x="-622.89197"
           y="50.41637"
           id="text161-2-5"
           transform="matrix(7.2112139e-4,-1.0195599,0.98084541,-0.04247526,0,0)"><tspan
             sodipodi:role="line"
             id="tspan159-7-9"
             x="-622.89197"
             y="50.41637"
             style="font-size:12.98753738px">Laboratrio Inf.</tspan></text>
        <text
           xml:space="preserve"
           style="font-size:15.62456131px;line-height:0;font-family:sans-serif"
           x="-516.18872"
           y="20.061672"
           id="text161-2-5-9"
           transform="matrix(7.0476846e-4,-1.043217,0.9586027,-0.04346082,0,0)"><tspan
             sodipodi:role="line"
             id="tspan159-7-9-8"
             x="-516.18872"
             y="20.061672"
             style="font-size:12.27644157px">Laboratrio Inf.</tspan></text>
        <text
           xml:space="preserve"
           style="font-size:15.62456131px;line-height:0;font-family:sans-serif"
           x="30.341637"
           y="93.788666"
           id="text161-2-5-9-1"
           transform="matrix(1.0431227,0.01404149,0.03120222,0.95908,0,0)"
           inkscape:transform-center-x="4.3027432"
           inkscape:transform-center-y="4.7804019"><tspan
             sodipodi:role="line"
             id="tspan159-7-9-8-8"
             x="30.341637"
             y="93.788666"
             style="font-size:12.27644157px">Laboratrio Corte e Modelagem</tspan></text>
        <text
           xml:space="preserve"
           style="font-size:13.59424496px;line-height:0;font-family:sans-serif"
           x="-361.03555"
           y="16.97831"
           id="text161-2-5-9-2"
           transform="matrix(8.765277e-4,-0.83879426,1.192224,-0.03494449,0,0)"><tspan
             sodipodi:role="line"
             id="tspan159-7-9-8-6"
             x="-361.03555"
             y="16.97831"
             style="font-size:10.6811924px">Laboratrio Costura</tspan></text>
        <text
           xml:space="preserve"
           style="font-size:11.6968956px;line-height:0;font-family:sans-serif"
           x="-8.9280891"
           y="461.01624"
           id="text161-2-5-9-3"
           transform="matrix(1.1302749,0.00570529,0.04163524,0.88495069,0,0)"><tspan
             sodipodi:role="line"
             x="-8.9280891"
             y="461.01624"
             style="font-size:9.1904192px"
             id="tspan3996">Laboratrio Vestuario</tspan></text>
        <text
           xml:space="preserve"
           style="font-size:14.08278465px;line-height:0;font-family:sans-serif"
           x="-418.36841"
           y="18.384724"
           id="text161-2-5-9-12"
           transform="matrix(7.819262e-4,-0.940276,1.0635501,-0.03917226,0,0)"><tspan
             sodipodi:role="line"
             id="tspan159-7-9-8-5"
             x="-418.36841"
             y="18.384724"
             style="font-size:11.06504536px">Laboratrio Moda</tspan></text>
        <text
           xml:space="preserve"
           style="font-size:13.59424496px;line-height:0;font-family:sans-serif"
           x="-367.00522"
           y="123.7383"
           id="text161-2-5-9-2-0"
           transform="matrix(8.7652769e-4,-0.83879425,1.192224,-0.03494449,0,0)"><tspan
             sodipodi:role="line"
             id="tspan159-7-9-8-6-9"
             x="-367.00522"
             y="123.7383"
             style="font-size:10.6811924px">Laboratrio Costura</tspan></text>
        <text
           xml:space="preserve"
           style="font-size:12.01385212px;line-height:0;font-family:sans-serif"
           x="132.50978"
           y="173.83641"
           id="text161-2-4"
           transform="matrix(1.0225592,0.01831225,0.02413358,0.97837069,0,0)"><tspan
             sodipodi:role="line"
             id="tspan159-7-7"
             x="132.50978"
             y="173.83641"
             style="font-size:9.43945599px">Almoxarifado Vesturio</tspan></text>
        <text
           xml:space="preserve"
           style="font-size:14.67138958px;line-height:0;font-family:sans-serif"
           x="-239.39963"
           y="18.526035"
           id="text161-2-5-9-2-0-8"
           transform="matrix(8.1217472e-4,-0.90525637,1.1046933,-0.03771333,0,0)"><tspan
             sodipodi:role="line"
             id="tspan159-7-9-8-6-9-3"
             x="-239.39963"
             y="18.526035"
             style="font-size:11.52752113px">Tecidoteca</tspan></text>
      </g>
    </g>
  </g>
</svg>
